<?xml version="1.0" encoding="UTF-8" standalone="no"?>
<svg
   xmlns:dc="http://purl.org/dc/elements/1.1/"
   xmlns:cc="http://creativecommons.org/ns#"
   xmlns:rdf="http://www.w3.org/1999/02/22-rdf-syntax-ns#"
   xmlns:svg="http://www.w3.org/2000/svg"
   xmlns="http://www.w3.org/2000/svg"
   xmlns:xlink="http://www.w3.org/1999/xlink"
   xmlns:sodipodi="http://sodipodi.sourceforge.net/DTD/sodipodi-0.dtd"
   xmlns:inkscape="http://www.inkscape.org/namespaces/inkscape"
   version="1.1"
   width="64"
   viewBox="0 0 64 64.000001"
   height="64"
   id="svg2"
   inkscape:version="0.91 r13725"
   sodipodi:docname="computer.svg">
  <sodipodi:namedview
     pagecolor="#ffffff"
     bordercolor="#666666"
     borderopacity="1"
     objecttolerance="10"
     gridtolerance="10"
     guidetolerance="10"
     inkscape:pageopacity="0"
     inkscape:pageshadow="2"
     inkscape:window-width="3840"
     inkscape:window-height="2045"
     id="namedview37"
     showgrid="true"
     inkscape:zoom="11.313708"
     inkscape:cx="0.89606877"
     inkscape:cy="58.011601"
     inkscape:window-x="0"
     inkscape:window-y="0"
     inkscape:window-maximized="1"
     inkscape:current-layer="svg2"
     inkscape:snap-bbox="true"
     inkscape:bbox-nodes="true">
    <inkscape:grid
       type="xygrid"
       id="grid4173" />
  </sodipodi:namedview>
  <defs
     id="defs4">
    <linearGradient
       y2="962.86"
       y1="1002.6"
       gradientTransform="translate(58.788,-954.44)"
       x2="11"
       gradientUnits="userSpaceOnUse"
       x1="11"
       id="linearGradient5203-4">
      <stop
         offset="0"
         stop-color="#b6b2b6"
         id="stop7328-7-5" />
      <stop
         offset="1"
         stop-color="#dddbdb"
         id="stop7330-0-4" />
    </linearGradient>
    <linearGradient
       x1="20"
       y1="1000.4"
       gradientTransform="translate(0,-1044.42)"
       x2="20"
       gradientUnits="userSpaceOnUse"
       y2="1032.4"
       id="linearGradient7024-1">
      <stop
         style="stop-color:#e4720c;stop-opacity:1"
         offset="0"
         stop-color="#60cc9f"
         id="stop7019-0" />
      <stop
         style="stop-color:#ec4040;stop-opacity:1"
         offset="1"
         stop-color="#0566af"
         id="stop7021-3" />
    </linearGradient>
    <linearGradient
       y2="44"
       y1="12"
       gradientTransform="matrix(-1,0,0,-1,64,56.06)"
       x2="14"
       gradientUnits="userSpaceOnUse"
       x1="14"
       id="linearGradient7015-5">
      <stop
         style="stop-color:#f7e385;stop-opacity:1"
         offset="0"
         stop-color="#9ce0c4"
         id="stop7011-3" />
      <stop
         style="stop-color:#f99133;stop-opacity:1"
         offset="1"
         stop-color="#37a4f5"
         id="stop7013-5" />
    </linearGradient>
    <linearGradient
       x1="35"
       y1="996.36"
       gradientTransform="translate(0,-988.38)"
       x2="35"
       gradientUnits="userSpaceOnUse"
       y2="1044.4"
       id="linearGradient4200">
      <stop
         offset="0"
         stop-color="#334545"
         id="stop5215" />
      <stop
         offset="1"
         stop-color="#172525"
         id="stop5217" />
    </linearGradient>
    <linearGradient
       y2="962.86"
       x2="11"
       y1="1002.6"
       x1="11"
       gradientTransform="translate(58.788,-950.42)"
       gradientUnits="userSpaceOnUse"
       id="linearGradient4232"
       xlink:href="#linearGradient5203-4" />
    <linearGradient
       y2="1044.4"
       x2="35"
       y1="996.36"
       x1="35"
       gradientTransform="translate(0,-984.36)"
       gradientUnits="userSpaceOnUse"
       id="linearGradient4234"
       xlink:href="#linearGradient4200" />
    <linearGradient
       inkscape:collect="always"
       xlink:href="#linearGradient9047"
       id="linearGradient4181"
       x1="32"
       y1="-14.04"
       x2="32"
       y2="-44.040001"
       gradientUnits="userSpaceOnUse"
       gradientTransform="translate(-2,58.04)" />
    <linearGradient
       id="linearGradient9047"
       inkscape:collect="always">
      <stop
         id="stop9049"
         offset="0"
         style="stop-color:#1287de;stop-opacity:1" />
      <stop
         id="stop9051"
         offset="1"
         style="stop-color:#0566af;stop-opacity:1" />
    </linearGradient>
    <linearGradient
       gradientTransform="translate(0,-988.3622)"
       inkscape:collect="always"
       xlink:href="#linearGradient13696"
       id="linearGradient14604"
       x1="33"
       y1="1034.3622"
       x2="33"
       y2="1000.3622"
       gradientUnits="userSpaceOnUse" />
    <linearGradient
       inkscape:collect="always"
       id="linearGradient13696">
      <stop
         style="stop-color:#343031;stop-opacity:1"
         offset="0"
         id="stop13698" />
      <stop
         style="stop-color:#534d52;stop-opacity:1"
         offset="1"
         id="stop13700" />
    </linearGradient>
    <linearGradient
       y2="1002.42"
       x2="5.2119999"
       y1="991.41998"
       x1="5.2119999"
       gradientTransform="translate(58.788,-950.41998)"
       gradientUnits="userSpaceOnUse"
       id="linearGradient4232-6"
       xlink:href="#linearGradient13677" />
    <linearGradient
       inkscape:collect="always"
       id="linearGradient13677">
      <stop
         style="stop-color:#b6b2b6;stop-opacity:1"
         offset="0"
         id="stop13679" />
      <stop
         style="stop-color:#dddbdb;stop-opacity:1"
         offset="1"
         id="stop13681" />
    </linearGradient>
    <linearGradient
       y2="962.85999"
       x2="11"
       y1="1002.6"
       x1="11"
       gradientTransform="translate(58.788,-954.44)"
       gradientUnits="userSpaceOnUse"
       id="linearGradient4387"
       xlink:href="#linearGradient5203-4"
       inkscape:collect="always" />
    <linearGradient
       y2="1044.4"
       x2="35"
       y1="996.35999"
       x1="35"
       gradientTransform="translate(0,-988.38)"
       gradientUnits="userSpaceOnUse"
       id="linearGradient4389"
       xlink:href="#linearGradient4200"
       inkscape:collect="always" />
  </defs>
  <metadata
     id="metadata7">
    <rdf:RDF>
      <cc:Work
         rdf:about="">
        <dc:format>image/svg+xml</dc:format>
        <dc:type
           rdf:resource="http://purl.org/dc/dcmitype/StillImage" />
        <dc:title />
      </cc:Work>
    </rdf:RDF>
  </metadata>
  <rect
     style="color:#000000;clip-rule:nonzero;display:inline;overflow:visible;visibility:visible;opacity:1;isolation:auto;mix-blend-mode:normal;color-interpolation:sRGB;color-interpolation-filters:linearRGB;solid-color:#000000;solid-opacity:1;fill:#98929a;fill-opacity:1;fill-rule:nonzero;stroke:none;stroke-width:2;stroke-linecap:butt;stroke-linejoin:miter;stroke-miterlimit:4;stroke-dasharray:none;stroke-dashoffset:0;stroke-opacity:1;color-rendering:auto;image-rendering:auto;shape-rendering:auto;text-rendering:auto;enable-background:accumulate"
     id="rect4183"
     width="18"
     height="6.4237289"
     x="23"
     y="48.576275" />
  <rect
     x="21"
     y="54.02"
     width="22"
     height="2"
     ry="1.7382999e-05"
     style="color:#000000;isolation:auto;mix-blend-mode:normal;solid-color:#000000;fill:#cac6c9;color-rendering:auto;image-rendering:auto;shape-rendering:auto"
     id="rect6778-1" />
  <g
     transform="translate(0,4.02002)"
     id="g4153">
    <rect
       id="rect6768-2"
       style="color:#000000;isolation:auto;mix-blend-mode:normal;solid-color:#000000;fill:url(#linearGradient4387);color-rendering:auto;image-rendering:auto;shape-rendering:auto"
       ry="4"
       height="40"
       width="56"
       y="7.98"
       x="4" />
    <rect
       id="rect6772-9"
       style="color:#000000;isolation:auto;mix-blend-mode:normal;solid-color:#000000;fill:url(#linearGradient4389);color-rendering:auto;image-rendering:auto;shape-rendering:auto"
       ry="4"
       height="36"
       width="56"
       y="9.9799995"
       x="4" />
    <rect
       id="rect6774-9"
       style="color:#000000;isolation:auto;mix-blend-mode:normal;solid-color:#000000;fill:url(#linearGradient7024-1);color-rendering:auto;image-rendering:auto;shape-rendering:auto"
       ry="2"
       height="32"
       width="52"
       y="-44.02"
       x="6"
       transform="scale(1,-1)" />
    <path
       inkscape:connector-curvature="0"
       id="path6780-2"
       d="m 56,44.02 c 1.108,0 2,-0.892 2,-2 l 0,-28 c 0,-1.108 -0.89199,-2 -2,-2 l -8.9414,0 a 22,22 0 0 1 6.941,16 22,22 0 0 1 -6.9219,16 l 8.922,0 z m -12.041,0 a 20,20 0 0 0 8.041,-16 20,20 0 0 0 -8.0352,-16 l -3.7559,0 a 18,18 0 0 1 9.791,16 18,18 0 0 1 -9.7637,16 l 3.7226,0 z m -20.168,0 a 18,18 0 0 1 -9.791,-16 18,18 0 0 1 9.7637,-16 l -3.7226,0 a 20,20 0 0 0 -8.041,16 20,20 0 0 0 8.0352,16 l 3.7559,0 z m -6.8496,0 A 22,22 0 0 1 10,28.02 a 22,22 0 0 1 6.9219,-16 L 8,12.02 c -1.108,0 -2,0.892 -2,2 l 0,28 c 0,1.108 0.89199,2 2,2 l 8.9414,0 z m 15.453,-0.014 a 16,16 0 0 0 9.7051,-3.5879 l -5.6992,-8.33 a 6,6 0 0 1 -2.041,1.4414 l -1.9648,10.476 z m -2.0234,-0.07 1.8613,-9.9238 a 6,6 0 0 1 -0.232,0 6,6 0 0 1 -2.2305,-0.4336 l -8.7852,6.0098 a 16,16 0 0 0 9.3867,4.3398 z m 13.207,-4.9004 a 16,16 0 0 0 4.3379,-9.3886 l -9.9238,-1.8614 a 6,6 0 0 1 0.008,0.2344 6,6 0 0 1 -0.4336,2.2266 l 6.0117,8.789 z m -23.977,-0.9179 8.3281,-5.6993 a 6,6 0 0 1 -1.4395,-2.039 l -10.477,-1.9649 a 16,16 0 0 0 3.587,9.703 z M 32,32.0177 a 4,4 0 0 0 4,-4 4,4 0 0 0 -4,-4 4,4 0 0 0 -4,4 4,4 0 0 0 4,4 z m -5.9922,-3.7676 a 6,6 0 0 1 -0.008,-0.2324 6,6 0 0 1 0.43555,-2.2285 l -6.0137,-8.7871 a 16,16 0 0 0 -4.3379,9.3886 l 9.9238,1.8594 z m 21.979,-0.6289 a 16,16 0 0 0 -3.5879,-9.7031 l -8.3301,5.6992 a 6,6 0 0 1 1.4394,2.0391 l 10.479,1.9648 z m -20.387,-3.6719 a 6,6 0 0 1 2.041,-1.4414 l 1.9629,-10.476 a 16,16 0 0 0 -9.7031,3.5879 l 5.6992,8.33 z m 6.627,-1.498 8.7891,-6.0117 a 16,16 0 0 0 -9.3887,-4.3379 l -1.8594,9.9238 a 6,6 0 0 1 0.23242,-0.01 6,6 0 0 1 2.2266,0.4336 z"
       style="color:#000000;isolation:auto;mix-blend-mode:normal;solid-color:#000000;fill:url(#linearGradient7015-5);color-rendering:auto;image-rendering:auto;shape-rendering:auto" />
  </g>
  <path
     inkscape:connector-curvature="0"
     id="rect6778-1-3"
     d="m 21,55.0195 0,1 22,0 0,-1 -22,0 z"
     style="color:#000000;isolation:auto;mix-blend-mode:normal;solid-color:#000000;fill:#7a747c;color-rendering:auto;image-rendering:auto;shape-rendering:auto" />
  <rect
     x="4"
     y="41.999985"
     width="56"
     height="9.9999828"
     ry="4.0000172"
     style="color:#000000;isolation:auto;mix-blend-mode:normal;solid-color:#000000;fill:url(#linearGradient4232-6);fill-opacity:1;color-rendering:auto;image-rendering:auto;shape-rendering:auto"
     id="rect6768-2-7" />
  <path
     inkscape:connector-curvature="0"
     id="rect6768-2-7-2"
     d="m 4,47 0,1 c 0,2.216 1.784,4 4,4 l 48,0 c 2.216,0 4,-1.784 4,-4 l 0,-1 c 0,2.216 -1.784,4 -4,4 L 8,51 C 5.784,51 4,49.216 4,47 Z"
     style="color:#000000;isolation:auto;mix-blend-mode:normal;solid-color:#000000;fill:#7a747c;color-rendering:auto;image-rendering:auto;shape-rendering:auto" />
  <path
     id="rect6768-2-7-0"
     d="m 8,12 c -2.216,0 -4,1.784 -4,4 l 0,1 c 0,-2.216 1.784,-4 4,-4 l 48,0 c 2.216,0 4,1.784 4,4 l 0,-1 c 0,-2.216 -1.784,-4 -4,-4 L 8,12 Z"
     style="color:#000000;isolation:auto;mix-blend-mode:normal;solid-color:#000000;fill:#e7e5e5;color-rendering:auto;image-rendering:auto;shape-rendering:auto"
     inkscape:connector-curvature="0" />
  <path
     style="color:#000000;isolation:auto;mix-blend-mode:normal;solid-color:#000000;fill:url(#linearGradient14604);fill-opacity:1;color-rendering:auto;image-rendering:auto;shape-rendering:auto"
     d="m 8,12 48,0 c 2.216,0 4,1.784 4,4 L 60,46 4,46 4,16 c 0,-2.216 1.784,-4 4,-4 z"
     id="rect6768-2-7-5"
     inkscape:connector-curvature="0"
     sodipodi:nodetypes="sssccss" />
  <rect
     x="6"
     y="13.999983"
     width="52"
     height="30.000017"
     ry="1.7382812e-05"
     style="color:#000000;isolation:auto;mix-blend-mode:normal;solid-color:#000000;fill:url(#linearGradient4181);fill-opacity:1;color-rendering:auto;image-rendering:auto;shape-rendering:auto"
     id="rect6774-9-9" />
  <path
     inkscape:connector-curvature="0"
     style="color:#000000;clip-rule:nonzero;display:inline;overflow:visible;visibility:visible;opacity:1;isolation:auto;mix-blend-mode:normal;color-interpolation:sRGB;color-interpolation-filters:linearRGB;solid-color:#000000;solid-opacity:1;fill:#37a4f5;fill-opacity:1;fill-rule:nonzero;stroke:none;stroke-width:8;stroke-linecap:butt;stroke-linejoin:miter;stroke-miterlimit:4;stroke-dasharray:none;stroke-dashoffset:0;stroke-opacity:1;color-rendering:auto;image-rendering:auto;shape-rendering:auto;text-rendering:auto;enable-background:accumulate"
     d="m 6,22 0,22 52,0 0,-4 -38,0 0,-16 c 0,-1.108 -0.89199,-2 -2,-2 z"
     id="rect8857-4-3-9-7"
     sodipodi:nodetypes="cccccssc" />
  <circle
     style="color:#000000;clip-rule:nonzero;display:inline;overflow:visible;visibility:visible;opacity:1;isolation:auto;mix-blend-mode:normal;color-interpolation:sRGB;color-interpolation-filters:linearRGB;solid-color:#000000;solid-opacity:1;fill:#37a4f5;fill-opacity:1;fill-rule:nonzero;stroke:none;stroke-width:4;stroke-linecap:butt;stroke-linejoin:miter;stroke-miterlimit:4;stroke-dasharray:none;stroke-dashoffset:0;stroke-opacity:1;color-rendering:auto;image-rendering:auto;shape-rendering:auto;text-rendering:auto;enable-background:accumulate"
     id="path14374-0"
     cx="52"
     cy="19.999983"
     r="4" />
</svg>
