<?xml version="1.0" encoding="UTF-8" standalone="no"?>
<!-- Created with Inkscape (http://www.inkscape.org/) -->

<svg
   xmlns:dc="http://purl.org/dc/elements/1.1/"
   xmlns:cc="http://creativecommons.org/ns#"
   xmlns:rdf="http://www.w3.org/1999/02/22-rdf-syntax-ns#"
   xmlns:svg="http://www.w3.org/2000/svg"
   xmlns="http://www.w3.org/2000/svg"
   xmlns:xlink="http://www.w3.org/1999/xlink"
   xmlns:sodipodi="http://sodipodi.sourceforge.net/DTD/sodipodi-0.dtd"
   xmlns:inkscape="http://www.inkscape.org/namespaces/inkscape"
   id="svg2"
   height="64"
   viewBox="0 0 64 64.000001"
   width="64"
   version="1.1"
   inkscape:version="0.91 r13725"
   sodipodi:docname="folder-cloud.svg">
  <sodipodi:namedview
     pagecolor="#ffffff"
     bordercolor="#666666"
     borderopacity="1"
     objecttolerance="10"
     gridtolerance="10"
     guidetolerance="10"
     inkscape:pageopacity="0"
     inkscape:pageshadow="2"
     inkscape:window-width="1837"
     inkscape:window-height="1574"
     id="namedview31"
     showgrid="false"
     inkscape:snap-bbox="true"
     inkscape:zoom="1"
     inkscape:cx="22.285414"
     inkscape:cy="21.537833"
     inkscape:window-x="1685"
     inkscape:window-y="182"
     inkscape:window-maximized="0"
     inkscape:current-layer="svg2"
     inkscape:bbox-nodes="true"
     inkscape:object-nodes="true">
    <inkscape:grid
       type="xygrid"
       id="grid4159" />
  </sodipodi:namedview>
  <defs
     id="defs4">
    <linearGradient
       id="linearGradient9969"
       y2="1030.4"
       gradientUnits="userSpaceOnUse"
       x2="16"
       gradientTransform="translate(0 -983.44)"
       y1="1029.4"
       x1="16">
      <stop
         id="stop7403-3"
         stop-color="#fff"
         offset="0" />
      <stop
         id="stop7405-5"
         stop-opacity="0"
         stop-color="#fff"
         offset="1" />
    </linearGradient>
    <linearGradient
       id="linearGradient8837"
       y2="1030.4"
       gradientUnits="userSpaceOnUse"
       x2="16"
       gradientTransform="matrix(1.1458,0,0,-1,-3.17,1075.3)"
       y1="1029.4"
       x1="16">
      <stop
         id="stop4904-2"
         offset="0" />
      <stop
         id="stop4906-9"
         stop-opacity="0"
         offset="1" />
    </linearGradient>
    <linearGradient
       id="linearGradient9967-9"
       y2="999.11401"
       gradientUnits="userSpaceOnUse"
       x2="12"
       gradientTransform="translate(0 -984.4)"
       y1="1040.4"
       x1="12">
      <stop
         id="stop8173-6-2"
         stop-color="#39a4f3"
         offset="0" />
      <stop
         id="stop8175-7-02"
         stop-color="#0566af"
         offset="1"
         style="stop-color:#37a4f5;stop-opacity:1" />
    </linearGradient>
    <linearGradient
       id="linearGradient9967-9-3"
       y2="999.11401"
       gradientUnits="userSpaceOnUse"
       x2="12"
       gradientTransform="translate(0,-984.4)"
       y1="1040.4"
       x1="12">
      <stop
         id="stop8173-6-2-6"
         stop-color="#39a4f3"
         offset="0" />
      <stop
         id="stop8175-7-02-7"
         stop-color="#0566af"
         offset="1"
         style="stop-color:#37a4f5;stop-opacity:1" />
    </linearGradient>
    <linearGradient
       id="linearGradient9967-9-35"
       y2="999.11401"
       gradientUnits="userSpaceOnUse"
       x2="12"
       gradientTransform="translate(0,-983.4)"
       y1="1040.4"
       x1="12">
      <stop
         id="stop8173-6-2-62"
         stop-color="#39a4f3"
         offset="0" />
      <stop
         id="stop8175-7-02-9"
         stop-color="#0566af"
         offset="1"
         style="stop-color:#37a4f5;stop-opacity:1" />
    </linearGradient>
    <linearGradient
       gradientTransform="translate(-2,0)"
       inkscape:collect="always"
       xlink:href="#linearGradient5033"
       id="linearGradient4797"
       x1="25"
       y1="56"
       x2="25"
       y2="14"
       gradientUnits="userSpaceOnUse" />
    <linearGradient
       inkscape:collect="always"
       id="linearGradient5033">
      <stop
         style="stop-color:#37a4f5;stop-opacity:1"
         offset="0"
         id="stop4793" />
      <stop
         style="stop-color:#609ecc;stop-opacity:1"
         offset="1"
         id="stop4795" />
    </linearGradient>
  </defs>
  <metadata
     id="metadata7">
    <rdf:RDF>
      <cc:Work
         rdf:about="">
        <dc:format>image/svg+xml</dc:format>
        <dc:type
           rdf:resource="http://purl.org/dc/dcmitype/StillImage" />
        <dc:title />
      </cc:Work>
    </rdf:RDF>
  </metadata>
  <path
     sodipodi:nodetypes="sssssssssss"
     d="M 10,8 C 7.784,8 6,9.784 6,12 l 0,21 c 0,2.216 1.784,4 4,4 l 44,0 c 2.216,0 4,-1.784 4,-4 l 0,-21 c 0,-1 -1,-2 -2,-2 L 23,10 C 21,10 20,8 18,8 Z"
     style="color:#000000;isolation:auto;mix-blend-mode:normal;solid-color:#000000;fill:#28618c;fill-opacity:1;color-rendering:auto;image-rendering:auto;shape-rendering:auto"
     id="rect5610-0-8-1"
     inkscape:connector-curvature="0" />
  <path
     sodipodi:nodetypes="csscsssccscc"
     inkscape:connector-curvature="0"
     d="m 46,16 c -3,0 -4,2 -6,2 L 6,18 c -1.3617,0 -2,0.5585 -2,2 l 0,32 c 0,2.216 1.784,4 4,4 l 48,0 c 2.216,0 4.0014,-1.784 4,-4 l 0,-32 c 0,-1.7929 -1.79492,-4.2187 -4.0039,-3.9978 l -10,0 z"
     style="color:#000000;isolation:auto;mix-blend-mode:normal;solid-color:#000000;fill:url(#linearGradient4797);fill-opacity:1.0;color-rendering:auto;image-rendering:auto;shape-rendering:auto"
     id="rect5605-5-9-5-9-3" />
  <path
     sodipodi:nodetypes="ccssccsscc"
     inkscape:connector-curvature="0"
     d="m 4,51 0,1 c 0.001,2.216 1.784,4 4,4 l 48,0 c 2.216,0 4.0014,-1.784 4,-4 l 0,-0.9941 c -0.002,2.213 -1.786,3.994 -4,3.994 l -48,0 c -2.216,0 -3.9986,-1.784 -4,-4 z"
     style="color:#000000;isolation:auto;mix-blend-mode:normal;solid-color:#000000;fill:#0566af;color-rendering:auto;image-rendering:auto;shape-rendering:auto"
     id="rect5605-5-9-5-9-9" />
  <path
     sodipodi:nodetypes="cssscssccscsscc"
     inkscape:connector-curvature="0"
     id="rect5605-5-9-5-9-3-5"
     d="m 46,16 c -3,0 -4,2 -6,2 L 6,18 c -1.3617,0 -2,0.5585 -2,2 l 0,1 c 0,-1.4415 0.6383,-2 2,-2 l 34,0 c 2,0 3,-2 6,-2 l -0.004,0 10,0 c 2.21999,0 4.0039,2.2051 4.0039,3.998 l 0,-1 c 0,-1.7929 -1.78391,-3.9981 -4.00391,-3.9981 l -10,0 z"
     style="color:#000000;isolation:auto;mix-blend-mode:normal;solid-color:#000000;fill:#9cc4e0;color-rendering:auto;image-rendering:auto;shape-rendering:auto" />
  <rect
     id="rect5679-96-6-3-9-1"
     style="color:#000000;opacity:1;isolation:auto;mix-blend-mode:normal;solid-color:#000000;fill:#1287de;color-rendering:auto;image-rendering:auto;shape-rendering:auto"
     height="1.0000174"
     width="11.999985"
     y="44.999981"
     x="4.0000153" />
  <rect
     width="0"
     x="43.381725"
     y="10.116561"
     height="14.668059"
     style="fill:#4d4d4d"
     id="rect4035" />
  <rect
     width="0"
     x="50.342297"
     y="32.68718"
     height="14.668059"
     style="fill:#4d4d4d"
     id="rect4035-8" />
  <rect
     width="0"
     x="52.15559"
     y="31.626448"
     height="14.668059"
     style="fill:#4d4d4d"
     id="rect4035-0" />
  <rect
     width="0"
     x="26.225475"
     y="6.3353109"
     height="14.668059"
     style="fill:#4d4d4d"
     id="rect4035-06" />
  <rect
     width="0"
     x="33.186047"
     y="28.905928"
     height="14.668059"
     style="fill:#4d4d4d"
     id="rect4035-8-7" />
  <rect
     width="0"
     x="34.99934"
     y="27.845198"
     height="14.668059"
     style="fill:#4d4d4d"
     id="rect4035-0-42" />
  <rect
     width="0"
     x="26.225475"
     y="6.3353109"
     height="14.668059"
     style="fill:#4d4d4d"
     id="rect4035-3" />
  <rect
     width="0"
     x="33.186047"
     y="28.905928"
     height="14.668059"
     style="fill:#4d4d4d"
     id="rect4035-8-9" />
  <rect
     width="0"
     x="34.99934"
     y="27.845198"
     height="14.668059"
     style="fill:#4d4d4d"
     id="rect4035-0-4" />
  <rect
     width="0"
     x="26.225475"
     y="6.3353109"
     height="14.668059"
     style="fill:#4d4d4d"
     id="rect4035-2" />
  <rect
     width="0"
     x="33.186047"
     y="28.905928"
     height="14.668059"
     style="fill:#4d4d4d"
     id="rect4035-8-99" />
  <rect
     width="0"
     x="34.99934"
     y="27.845198"
     height="14.668059"
     style="fill:#4d4d4d"
     id="rect4035-0-43" />
  <rect
     width="0"
     x="26.225475"
     y="6.3353109"
     height="14.668059"
     style="fill:#4d4d4d"
     id="rect4035-3-9" />
  <rect
     width="0"
     x="33.186047"
     y="28.905928"
     height="14.668059"
     style="fill:#4d4d4d"
     id="rect4035-8-9-9" />
  <rect
     width="0"
     x="34.99934"
     y="27.845198"
     height="14.668059"
     style="fill:#4d4d4d"
     id="rect4035-0-4-4" />
  <rect
     width="0"
     x="96.49559"
     y="27.624739"
     height="10.999983"
     style="fill:#4d4d4d"
     id="rect4035-5" />
  <rect
     width="0"
     x="91.943588"
     y="30.143843"
     height="10.999983"
     style="fill:#4d4d4d"
     id="rect4035-7" />
  <rect
     width="0"
     x="87.435806"
     y="17.725264"
     height="10.999983"
     style="fill:#4d4d4d"
     id="rect4035-9" />
  <rect
     width="0"
     x="88.279831"
     y="29.96269"
     height="10.999983"
     style="fill:#4d4d4d"
     id="rect4035-96" />
  <rect
     width="0"
     x="83.727829"
     y="32.481796"
     height="10.999983"
     style="fill:#4d4d4d"
     id="rect4035-7-0" />
  <rect
     width="0"
     x="79.220047"
     y="20.063215"
     height="10.999983"
     style="fill:#4d4d4d"
     id="rect4035-9-6" />
  <rect
     width="0"
     x="96.49559"
     y="27.624739"
     height="10.999983"
     style="fill:#4d4d4d"
     id="rect4035-1" />
  <rect
     width="0"
     x="91.943588"
     y="30.143843"
     height="10.999983"
     style="fill:#4d4d4d"
     id="rect4035-7-2" />
  <rect
     width="0"
     x="87.435806"
     y="17.725264"
     height="10.999983"
     style="fill:#4d4d4d"
     id="rect4035-9-0" />
  <rect
     width="0"
     x="88.279831"
     y="29.96269"
     height="10.999983"
     style="fill:#4d4d4d"
     id="rect4035-96-9" />
  <rect
     width="0"
     x="83.727829"
     y="32.481796"
     height="10.999983"
     style="fill:#4d4d4d"
     id="rect4035-7-0-9" />
  <rect
     width="0"
     x="79.220047"
     y="20.063215"
     height="10.999983"
     style="fill:#4d4d4d"
     id="rect4035-9-6-9" />
  <path
     style="fill:#0566af;stroke-linejoin:round"
     d="M 32 28 A 7 7 0 0 0 25 35 A 7 7 0 0 0 25.080078 36.001953 A 5 5 0 0 0 25 36 A 5 5 0 0 0 20 41 A 5 5 0 0 0 25 46 L 38 46 A 6 6 0 0 0 44 40 A 6 6 0 0 0 38.931641 34.078125 A 7 7 0 0 0 32 28 z M 31.998047 30 L 32 30 C 34.519336 30.0036 36.617386 31.844184 36.949219 34.341797 A 2.0002 2.0002 0 0 0 38.621094 36.054688 C 40.579186 36.362459 41.998231 38.019821 42 40.001953 C 41.99894 42.233832 40.232159 44 38 44 L 25 44 C 23.319456 44 22 42.680544 22 41 C 22 39.319456 23.319456 38 25 38 C 25.0047 38.000132 25.009002 37.999846 25.013672 38 A 2.0002 2.0002 0 0 0 27.056641 35.699219 C 27.021036 35.466197 27.002418 35.231798 27 34.996094 C 27.002125 32.213534 29.215213 30.001062 31.998047 30 z "
     id="path4188" />
  <rect
     id="rect5679-96-6-3-9-1-3"
     style="color:#000000;opacity:1;isolation:auto;mix-blend-mode:normal;solid-color:#000000;fill:#1287de;color-rendering:auto;image-rendering:auto;shape-rendering:auto"
     height="1.0000174"
     width="12"
     y="44.999981"
     x="48" />
</svg>
