<?xml version="1.0" encoding="UTF-8" standalone="no"?>
<!-- Created with Inkscape (http://www.inkscape.org/) -->

<svg
   xmlns:dc="http://purl.org/dc/elements/1.1/"
   xmlns:cc="http://creativecommons.org/ns#"
   xmlns:rdf="http://www.w3.org/1999/02/22-rdf-syntax-ns#"
   xmlns:svg="http://www.w3.org/2000/svg"
   xmlns="http://www.w3.org/2000/svg"
   xmlns:xlink="http://www.w3.org/1999/xlink"
   xmlns:sodipodi="http://sodipodi.sourceforge.net/DTD/sodipodi-0.dtd"
   xmlns:inkscape="http://www.inkscape.org/namespaces/inkscape"
   id="svg2"
   height="64"
   viewBox="0 0 64 64.000001"
   width="64"
   version="1.1"
   inkscape:version="0.91 r13725"
   sodipodi:docname="folder-decrypted.svg">
  <sodipodi:namedview
     pagecolor="#ffffff"
     bordercolor="#666666"
     borderopacity="1"
     objecttolerance="10"
     gridtolerance="10"
     guidetolerance="10"
     inkscape:pageopacity="0"
     inkscape:pageshadow="2"
     inkscape:window-width="1837"
     inkscape:window-height="1574"
     id="namedview31"
     showgrid="true"
     inkscape:snap-bbox="true"
     inkscape:zoom="11.313708"
     inkscape:cx="54.820022"
     inkscape:cy="39.631704"
     inkscape:window-x="1685"
     inkscape:window-y="182"
     inkscape:window-maximized="0"
     inkscape:current-layer="svg2"
     inkscape:bbox-nodes="true"
     inkscape:object-nodes="true">
    <inkscape:grid
       type="xygrid"
       id="grid4159"
       empspacing="4" />
  </sodipodi:namedview>
  <defs
     id="defs4">
    <linearGradient
       id="linearGradient9969"
       y2="1030.4"
       gradientUnits="userSpaceOnUse"
       x2="16"
       gradientTransform="translate(0 -983.44)"
       y1="1029.4"
       x1="16">
      <stop
         id="stop7403-3"
         stop-color="#fff"
         offset="0" />
      <stop
         id="stop7405-5"
         stop-opacity="0"
         stop-color="#fff"
         offset="1" />
    </linearGradient>
    <linearGradient
       id="linearGradient8837"
       y2="1030.4"
       gradientUnits="userSpaceOnUse"
       x2="16"
       gradientTransform="matrix(1.1458,0,0,-1,-3.17,1075.3)"
       y1="1029.4"
       x1="16">
      <stop
         id="stop4904-2"
         offset="0" />
      <stop
         id="stop4906-9"
         stop-opacity="0"
         offset="1" />
    </linearGradient>
    <linearGradient
       id="linearGradient9967-9"
       y2="999.11401"
       gradientUnits="userSpaceOnUse"
       x2="12"
       gradientTransform="translate(0 -984.4)"
       y1="1040.4"
       x1="12">
      <stop
         id="stop8173-6-2"
         stop-color="#39a4f3"
         offset="0" />
      <stop
         id="stop8175-7-02"
         stop-color="#0566af"
         offset="1"
         style="stop-color:#37a4f5;stop-opacity:1" />
    </linearGradient>
    <linearGradient
       id="linearGradient9967-9-3"
       y2="999.11401"
       gradientUnits="userSpaceOnUse"
       x2="12"
       gradientTransform="translate(0,-984.4)"
       y1="1040.4"
       x1="12">
      <stop
         id="stop8173-6-2-6"
         stop-color="#39a4f3"
         offset="0" />
      <stop
         id="stop8175-7-02-7"
         stop-color="#0566af"
         offset="1"
         style="stop-color:#37a4f5;stop-opacity:1" />
    </linearGradient>
    <linearGradient
       id="linearGradient9967-9-35"
       y2="999.11401"
       gradientUnits="userSpaceOnUse"
       x2="12"
       gradientTransform="translate(0,-983.4)"
       y1="1040.4"
       x1="12">
      <stop
         id="stop8173-6-2-62"
         stop-color="#39a4f3"
         offset="0" />
      <stop
         id="stop8175-7-02-9"
         stop-color="#0566af"
         offset="1"
         style="stop-color:#37a4f5;stop-opacity:1" />
    </linearGradient>
    <linearGradient
       gradientTransform="translate(-2,0)"
       inkscape:collect="always"
       xlink:href="#linearGradient5033"
       id="linearGradient4797"
       x1="25"
       y1="56"
       x2="25"
       y2="14"
       gradientUnits="userSpaceOnUse" />
    <linearGradient
       inkscape:collect="always"
       id="linearGradient5033">
      <stop
         style="stop-color:#37a4f5;stop-opacity:1"
         offset="0"
         id="stop4793" />
      <stop
         style="stop-color:#609ecc;stop-opacity:1"
         offset="1"
         id="stop4795" />
    </linearGradient>
    <linearGradient
       x1="605.99"
       y1="1320.4"
       gradientTransform="matrix(1.7492 0 0 1.7494 -1119.9 -2277.9)"
       x2="638"
       gradientUnits="userSpaceOnUse"
       y2="1320.4"
       id="linearGradient5388">
      <stop
         offset="0"
         stop-color="#0566af"
         id="stop13941" />
      <stop
         offset="1"
         stop-color="#1287de"
         id="stop13943" />
    </linearGradient>
    <linearGradient
       x1="23.977"
       y1="11.271"
       gradientTransform="matrix(2.1538 0 0 2.1535 -19.692 -19.768)"
       x2="23.977"
       gradientUnits="userSpaceOnUse"
       y2="36.953"
       id="linearGradient5722">
      <stop
         offset="0"
         stop-color="#7dec40"
         id="stop7333-5" />
      <stop
         offset="1"
         stop-color="#44a410"
         id="stop7335-8" />
    </linearGradient>
    <linearGradient
       y2="153.5"
       x2="-493.36"
       gradientTransform="translate(526.36,-120)"
       y1="153.5"
       gradientUnits="userSpaceOnUse"
       x1="-494.36"
       id="linearGradient4881">
      <stop
         offset="0"
         id="stop4877" />
      <stop
         offset="1"
         stop-opacity="0"
         id="stop4879" />
    </linearGradient>
    <linearGradient
       y2="153.5"
       x2="-493.36"
       gradientTransform="matrix(-1,0,0,1,-462.36,-120)"
       y1="153.5"
       gradientUnits="userSpaceOnUse"
       x1="-494.36"
       id="linearGradient4913">
      <stop
         offset="0"
         stop-color="#f5f4f4"
         id="stop4909" />
      <stop
         offset="1"
         stop-opacity="0"
         stop-color="#f5f4f4"
         id="stop4911" />
    </linearGradient>
    <linearGradient
       x1="23.976999"
       y1="11.271"
       gradientTransform="matrix(0.69349419,0,0,0.69339759,15.195197,21.323041)"
       x2="23.976999"
       gradientUnits="userSpaceOnUse"
       y2="36.952999"
       id="linearGradient5722-3">
      <stop
         offset="0"
         stop-color="#7dec40"
         id="stop7333-5-5" />
      <stop
         offset="1"
         stop-color="#44a410"
         id="stop7335-8-6" />
    </linearGradient>
    <linearGradient
       inkscape:collect="always"
       id="linearGradient4841">
      <stop
         style="stop-color:#1287de;stop-opacity:1;"
         offset="0"
         id="stop4843" />
      <stop
         style="stop-color:#4080b0;stop-opacity:1"
         offset="1"
         id="stop4845" />
    </linearGradient>
    <linearGradient
       inkscape:collect="always"
       xlink:href="#linearGradient4841"
       id="linearGradient4215"
       x1="37"
       y1="56"
       x2="37"
       y2="16"
       gradientUnits="userSpaceOnUse" />
  </defs>
  <metadata
     id="metadata7">
    <rdf:RDF>
      <cc:Work
         rdf:about="">
        <dc:format>image/svg+xml</dc:format>
        <dc:type
           rdf:resource="http://purl.org/dc/dcmitype/StillImage" />
        <dc:title />
      </cc:Work>
    </rdf:RDF>
  </metadata>
  <path
     sodipodi:nodetypes="sssssssssss"
     d="M 10,8 C 7.784,8 6,9.784 6,12 l 0,21 c 0,2.216 1.784,4 4,4 l 44,0 c 2.216,0 4,-1.784 4,-4 l 0,-21 c 0,-1 -1,-2 -2,-2 L 23,10 C 21,10 20,8 18,8 Z"
     style="color:#000000;isolation:auto;mix-blend-mode:normal;solid-color:#000000;fill:#28618c;fill-opacity:1;color-rendering:auto;image-rendering:auto;shape-rendering:auto"
     id="rect5610-0-8-1"
     inkscape:connector-curvature="0" />
  <path
     sodipodi:nodetypes="csscsssccscc"
     inkscape:connector-curvature="0"
     d="m 46,16 c -3,0 -4,2 -6,2 L 6,18 c -1.3617,0 -2,0.5585 -2,2 l 0,32 c 0,2.216 1.784,4 4,4 l 48,0 c 2.216,0 4.0014,-1.784 4,-4 l 0,-32 c 0,-1.7929 -1.79492,-4.2187 -4.0039,-3.9978 l -10,0 z"
     style="color:#000000;isolation:auto;mix-blend-mode:normal;solid-color:#000000;fill:url(#linearGradient4797);fill-opacity:1.0;color-rendering:auto;image-rendering:auto;shape-rendering:auto"
     id="rect5605-5-9-5-9-3" />
  <path
     sodipodi:nodetypes="cssscssccscsscc"
     inkscape:connector-curvature="0"
     id="rect5605-5-9-5-9-3-5"
     d="m 46,16 c -3,0 -4,2 -6,2 L 6,18 c -1.3617,0 -2,0.5585 -2,2 l 0,1 c 0,-1.4415 0.6383,-2 2,-2 l 34,0 c 2,0 3,-2 6,-2 l -0.004,0 10,0 c 2.21999,0 4.0039,2.2051 4.0039,3.998 l 0,-1 c 0,-1.7929 -1.78391,-3.9981 -4.00391,-3.9981 l -10,0 z"
     style="color:#000000;isolation:auto;mix-blend-mode:normal;solid-color:#000000;fill:#9cc4e0;color-rendering:auto;image-rendering:auto;shape-rendering:auto" />
  <path
     style="color:#000000;clip-rule:nonzero;display:inline;overflow:visible;visibility:visible;opacity:1;isolation:auto;mix-blend-mode:normal;color-interpolation:sRGB;color-interpolation-filters:linearRGB;solid-color:#000000;solid-opacity:1;fill:url(#linearGradient4215);fill-opacity:1;fill-rule:nonzero;stroke:none;stroke-width:2;stroke-linecap:butt;stroke-linejoin:miter;stroke-miterlimit:4;stroke-dasharray:none;stroke-dashoffset:0;stroke-opacity:1;color-rendering:auto;image-rendering:auto;shape-rendering:auto;text-rendering:auto;enable-background:accumulate"
     d="m 46,16 c -0.788272,0 -1.43347,0.142102 -2,0.345703 L 44,18 l 4,0 0,-1.998047 -2.003906,0 L 46,16 Z m 2,2 0,4 4,0 0,-4 -4,0 z m 4,0 4,0 0,-2 -4,0 0,2 z m 4,0 0,4 4,0 0,-2 c 0,-0.636679 -0.234143,-1.350562 -0.625,-2 L 56,18 Z m 0,4 -4,0 0,4 4,0 0,-4 z m 0,4 0,4 4,0 0,-4 -4,0 z m 0,4 -2,0 0,2 2,0 0,-2 z m -4,-4 -2,0 0,4 2,0 0,-4 z m -4,-4 -2,0 0,2 2,0 0,-2 z m -4,-4 -4,0 0,4 4,0 0,-4 z m -36,0 0,4 4,0 0,-4 -4,0 z m 4,4 0,4 4,0 0,-4 -4,0 z m 4,0 4,0 0,-4 -4,0 0,4 z m 0,4 0,2 2,0 0,-2 -2,0 z m -4,0 -4,0 0,2 4,0 0,-2 z m -4,2 -2,0 0,2 2,0 0,-2 z m 0,-2 0,-4 -4,0 0,4 4,0 z m 16,-8 0,2 4,0 0,-2 -4,0 z m 8,0 0,4 4,0 0,-4 -4,0 z"
     id="rect4218"
     inkscape:connector-curvature="0" />
  <rect
     id="rect5679-96-6-3-9-1"
     style="color:#000000;opacity:1;isolation:auto;mix-blend-mode:normal;solid-color:#000000;fill:#1287de;color-rendering:auto;image-rendering:auto;shape-rendering:auto"
     height="1.0000174"
     width="11.999985"
     y="44.999981"
     x="4.0000153" />
  <rect
     width="0"
     x="43.381725"
     y="10.116561"
     height="14.668059"
     style="fill:#4d4d4d"
     id="rect4035" />
  <rect
     width="0"
     x="50.342297"
     y="32.68718"
     height="14.668059"
     style="fill:#4d4d4d"
     id="rect4035-8" />
  <rect
     width="0"
     x="52.15559"
     y="31.626448"
     height="14.668059"
     style="fill:#4d4d4d"
     id="rect4035-0" />
  <rect
     width="0"
     x="26.225475"
     y="6.3353109"
     height="14.668059"
     style="fill:#4d4d4d"
     id="rect4035-06" />
  <rect
     width="0"
     x="33.186047"
     y="28.905928"
     height="14.668059"
     style="fill:#4d4d4d"
     id="rect4035-8-7" />
  <rect
     width="0"
     x="34.99934"
     y="27.845198"
     height="14.668059"
     style="fill:#4d4d4d"
     id="rect4035-0-42" />
  <rect
     width="0"
     x="26.225475"
     y="6.3353109"
     height="14.668059"
     style="fill:#4d4d4d"
     id="rect4035-3" />
  <rect
     width="0"
     x="33.186047"
     y="28.905928"
     height="14.668059"
     style="fill:#4d4d4d"
     id="rect4035-8-9" />
  <rect
     width="0"
     x="34.99934"
     y="27.845198"
     height="14.668059"
     style="fill:#4d4d4d"
     id="rect4035-0-4" />
  <rect
     width="0"
     x="26.225475"
     y="6.3353109"
     height="14.668059"
     style="fill:#4d4d4d"
     id="rect4035-2" />
  <rect
     width="0"
     x="33.186047"
     y="28.905928"
     height="14.668059"
     style="fill:#4d4d4d"
     id="rect4035-8-99" />
  <rect
     width="0"
     x="34.99934"
     y="27.845198"
     height="14.668059"
     style="fill:#4d4d4d"
     id="rect4035-0-43" />
  <rect
     width="0"
     x="26.225475"
     y="6.3353109"
     height="14.668059"
     style="fill:#4d4d4d"
     id="rect4035-3-9" />
  <rect
     width="0"
     x="33.186047"
     y="28.905928"
     height="14.668059"
     style="fill:#4d4d4d"
     id="rect4035-8-9-9" />
  <rect
     width="0"
     x="34.99934"
     y="27.845198"
     height="14.668059"
     style="fill:#4d4d4d"
     id="rect4035-0-4-4" />
  <rect
     width="0"
     x="96.49559"
     y="27.624739"
     height="10.999983"
     style="fill:#4d4d4d"
     id="rect4035-5" />
  <rect
     width="0"
     x="91.943588"
     y="30.143843"
     height="10.999983"
     style="fill:#4d4d4d"
     id="rect4035-7" />
  <rect
     width="0"
     x="87.435806"
     y="17.725264"
     height="10.999983"
     style="fill:#4d4d4d"
     id="rect4035-9" />
  <rect
     width="0"
     x="88.279831"
     y="29.96269"
     height="10.999983"
     style="fill:#4d4d4d"
     id="rect4035-96" />
  <rect
     width="0"
     x="83.727829"
     y="32.481796"
     height="10.999983"
     style="fill:#4d4d4d"
     id="rect4035-7-0" />
  <rect
     width="0"
     x="79.220047"
     y="20.063215"
     height="10.999983"
     style="fill:#4d4d4d"
     id="rect4035-9-6" />
  <rect
     width="0"
     x="96.49559"
     y="27.624739"
     height="10.999983"
     style="fill:#4d4d4d"
     id="rect4035-1" />
  <rect
     width="0"
     x="91.943588"
     y="30.143843"
     height="10.999983"
     style="fill:#4d4d4d"
     id="rect4035-7-2" />
  <rect
     width="0"
     x="87.435806"
     y="17.725264"
     height="10.999983"
     style="fill:#4d4d4d"
     id="rect4035-9-0" />
  <rect
     width="0"
     x="88.279831"
     y="29.96269"
     height="10.999983"
     style="fill:#4d4d4d"
     id="rect4035-96-9" />
  <rect
     width="0"
     x="83.727829"
     y="32.481796"
     height="10.999983"
     style="fill:#4d4d4d"
     id="rect4035-7-0-9" />
  <rect
     width="0"
     x="79.220047"
     y="20.063215"
     height="10.999983"
     style="fill:#4d4d4d"
     id="rect4035-9-6-9" />
  <rect
     id="rect5679-96-6-3-9-1-3"
     style="color:#000000;opacity:1;isolation:auto;mix-blend-mode:normal;solid-color:#000000;fill:#1287de;color-rendering:auto;image-rendering:auto;shape-rendering:auto"
     height="1.0000174"
     width="12"
     y="44.999981"
     x="48" />
  <path
     style="color:#000000;clip-rule:nonzero;display:inline;overflow:visible;visibility:visible;opacity:1;isolation:auto;mix-blend-mode:normal;color-interpolation:sRGB;color-interpolation-filters:linearRGB;solid-color:#000000;solid-opacity:1;fill:#0566af;fill-opacity:1;fill-rule:nonzero;stroke:none;stroke-width:2;stroke-linecap:butt;stroke-linejoin:miter;stroke-miterlimit:4;stroke-dasharray:none;stroke-dashoffset:0;stroke-opacity:1;color-rendering:auto;image-rendering:auto;shape-rendering:auto;text-rendering:auto;enable-background:accumulate"
     d="M 24 38 L 24 48 L 40 48 L 40 38 L 24 38 z M 26 40 L 38 40 L 38 46 L 26 46 L 26 40 z "
     id="rect4201" />
  <path
     style="color:#000000;clip-rule:nonzero;display:inline;overflow:visible;visibility:visible;opacity:1;isolation:auto;mix-blend-mode:normal;color-interpolation:sRGB;color-interpolation-filters:linearRGB;solid-color:#000000;solid-opacity:1;fill:#0566af;fill-opacity:1;fill-rule:nonzero;stroke:none;stroke-width:2;stroke-linecap:butt;stroke-linejoin:miter;stroke-miterlimit:4;stroke-dasharray:none;stroke-dashoffset:0;stroke-opacity:1;color-rendering:auto;image-rendering:auto;shape-rendering:auto;text-rendering:auto;enable-background:accumulate"
     d="m 32,28 c -1.656854,0 -3.156854,0.671573 -4.242641,1.75736 l 1.414214,1.414213 C 29.89543,30.447715 30.89543,30 32,30 c 2.209139,0 4,1.790861 4,4 l 0,5 2,0 0,-5 c 0,-3.313708 -2.686292,-6 -6,-6 z"
     id="path4203"
     inkscape:connector-curvature="0"
     sodipodi:nodetypes="sccssccss" />
  <path
     sodipodi:nodetypes="ccssccsscc"
     inkscape:connector-curvature="0"
     d="m 4,51 0,1 c 0.001,2.216 1.784,4 4,4 l 48,0 c 2.216,0 4.0014,-1.784 4,-4 l 0,-0.9941 c -0.002,2.213 -1.786,3.994 -4,3.994 l -48,0 c -2.216,0 -3.9986,-1.784 -4,-4 z"
     style="color:#000000;isolation:auto;mix-blend-mode:normal;solid-color:#000000;fill:#0566af;color-rendering:auto;image-rendering:auto;shape-rendering:auto"
     id="rect5605-5-9-5-9-9" />
  <path
     style="color:#000000;clip-rule:nonzero;display:inline;overflow:visible;visibility:visible;opacity:1;isolation:auto;mix-blend-mode:normal;color-interpolation:sRGB;color-interpolation-filters:linearRGB;solid-color:#000000;solid-opacity:1;fill:#609ecc;fill-opacity:1;fill-rule:nonzero;stroke:none;stroke-width:2;stroke-linecap:butt;stroke-linejoin:miter;stroke-miterlimit:4;stroke-dasharray:none;stroke-dashoffset:0;stroke-opacity:1;color-rendering:auto;image-rendering:auto;shape-rendering:auto;text-rendering:auto;enable-background:accumulate"
     d="M 45.992188 16 C 45.644449 16.000434 45.327923 16.032121 45.029297 16.080078 C 44.998246 16.085177 44.964165 16.088208 44.933594 16.09375 C 44.879718 16.103317 44.83565 16.121942 44.783203 16.132812 C 44.50731 16.19107 44.242127 16.258687 44 16.345703 L 44 17.345703 C 44.565522 17.142464 45.209715 17.00049 45.996094 17 L 48 17 L 48 16.001953 L 45.996094 16.001953 L 46 16 L 45.996094 16 C 45.994692 16.000001 45.993589 15.999998 45.992188 16 z M 52 16 L 52 17 L 55.996094 17 C 55.99741 17 55.998684 16.999998 56 17 L 56 16 C 55.998684 15.999998 55.99741 16 55.996094 16 L 52 16 z M 8 18 L 8 19 L 12 19 L 12 18 L 8 18 z M 16 18 L 16 19 L 20 19 L 20 18 L 16 18 z M 24 18 L 24 19 L 28 19 L 28 18 L 24 18 z M 32 18 L 32 19 L 36 19 L 36 18 L 32 18 z M 40 18 L 40 19 C 41 19 41.75 18.5 42.625 18 L 40 18 z M 58.46875 18 C 59.395959 18.806105 60 19.964646 60 20.998047 L 60 20 C 60 19.999371 60 19.998676 60 19.998047 C 60 19.996164 60.000004 19.994072 60 19.992188 C 59.999588 19.79472 59.969552 19.590621 59.927734 19.386719 C 59.915583 19.327652 59.898167 19.268468 59.882812 19.208984 C 59.834135 19.022116 59.776774 18.835343 59.697266 18.650391 C 59.691058 18.635417 59.686073 18.620423 59.679688 18.605469 C 59.587934 18.398668 59.474185 18.196755 59.347656 18 L 58.46875 18 z "
     id="rect4214-6-3-9-74" />
</svg>
