<?xml version="1.0" encoding="UTF-8" standalone="no"?>
<!-- Created with Inkscape (http://www.inkscape.org/) -->

<svg
   xmlns:dc="http://purl.org/dc/elements/1.1/"
   xmlns:cc="http://creativecommons.org/ns#"
   xmlns:rdf="http://www.w3.org/1999/02/22-rdf-syntax-ns#"
   xmlns:svg="http://www.w3.org/2000/svg"
   xmlns="http://www.w3.org/2000/svg"
   xmlns:xlink="http://www.w3.org/1999/xlink"
   xmlns:sodipodi="http://sodipodi.sourceforge.net/DTD/sodipodi-0.dtd"
   xmlns:inkscape="http://www.inkscape.org/namespaces/inkscape"
   id="svg2"
   height="64"
   viewBox="0 0 64 64.000001"
   width="64"
   version="1.1"
   inkscape:version="0.91 r13725"
   sodipodi:docname="folder-html.svg">
  <sodipodi:namedview
     pagecolor="#ffffff"
     bordercolor="#666666"
     borderopacity="1"
     objecttolerance="10"
     gridtolerance="10"
     guidetolerance="10"
     inkscape:pageopacity="0"
     inkscape:pageshadow="2"
     inkscape:window-width="1837"
     inkscape:window-height="1574"
     id="namedview31"
     showgrid="true"
     inkscape:snap-bbox="true"
     inkscape:zoom="8"
     inkscape:cx="34.467155"
     inkscape:cy="12.061336"
     inkscape:window-x="1685"
     inkscape:window-y="182"
     inkscape:window-maximized="0"
     inkscape:current-layer="svg2"
     inkscape:bbox-nodes="true"
     inkscape:object-nodes="true">
    <inkscape:grid
       type="xygrid"
       id="grid4159"
       empspacing="4" />
  </sodipodi:namedview>
  <defs
     id="defs4">
    <linearGradient
       id="linearGradient9969"
       y2="1030.4"
       gradientUnits="userSpaceOnUse"
       x2="16"
       gradientTransform="translate(0 -983.44)"
       y1="1029.4"
       x1="16">
      <stop
         id="stop7403-3"
         stop-color="#fff"
         offset="0" />
      <stop
         id="stop7405-5"
         stop-opacity="0"
         stop-color="#fff"
         offset="1" />
    </linearGradient>
    <linearGradient
       id="linearGradient8837"
       y2="1030.4"
       gradientUnits="userSpaceOnUse"
       x2="16"
       gradientTransform="matrix(1.1458,0,0,-1,-3.17,1075.3)"
       y1="1029.4"
       x1="16">
      <stop
         id="stop4904-2"
         offset="0" />
      <stop
         id="stop4906-9"
         stop-opacity="0"
         offset="1" />
    </linearGradient>
    <linearGradient
       id="linearGradient9967-9"
       y2="999.11401"
       gradientUnits="userSpaceOnUse"
       x2="12"
       gradientTransform="translate(0 -984.4)"
       y1="1040.4"
       x1="12">
      <stop
         id="stop8173-6-2"
         stop-color="#39a4f3"
         offset="0" />
      <stop
         id="stop8175-7-02"
         stop-color="#0566af"
         offset="1"
         style="stop-color:#37a4f5;stop-opacity:1" />
    </linearGradient>
    <linearGradient
       id="linearGradient9967-9-3"
       y2="999.11401"
       gradientUnits="userSpaceOnUse"
       x2="12"
       gradientTransform="translate(0,-984.4)"
       y1="1040.4"
       x1="12">
      <stop
         id="stop8173-6-2-6"
         stop-color="#39a4f3"
         offset="0" />
      <stop
         id="stop8175-7-02-7"
         stop-color="#0566af"
         offset="1"
         style="stop-color:#37a4f5;stop-opacity:1" />
    </linearGradient>
    <linearGradient
       id="linearGradient9967-9-35"
       y2="999.11401"
       gradientUnits="userSpaceOnUse"
       x2="12"
       gradientTransform="translate(0,-983.4)"
       y1="1040.4"
       x1="12">
      <stop
         id="stop8173-6-2-62"
         stop-color="#39a4f3"
         offset="0" />
      <stop
         id="stop8175-7-02-9"
         stop-color="#0566af"
         offset="1"
         style="stop-color:#37a4f5;stop-opacity:1" />
    </linearGradient>
    <linearGradient
       gradientTransform="translate(-2,0)"
       inkscape:collect="always"
       xlink:href="#linearGradient5033"
       id="linearGradient4797"
       x1="25"
       y1="56"
       x2="25"
       y2="14"
       gradientUnits="userSpaceOnUse" />
    <linearGradient
       inkscape:collect="always"
       id="linearGradient5033">
      <stop
         style="stop-color:#37a4f5;stop-opacity:1"
         offset="0"
         id="stop4793" />
      <stop
         style="stop-color:#609ecc;stop-opacity:1"
         offset="1"
         id="stop4795" />
    </linearGradient>
    <linearGradient
       x1="605.99"
       y1="1320.4"
       gradientTransform="matrix(1.7492 0 0 1.7494 -1119.9 -2277.9)"
       x2="638"
       gradientUnits="userSpaceOnUse"
       y2="1320.4"
       id="linearGradient5388">
      <stop
         offset="0"
         stop-color="#0566af"
         id="stop13941" />
      <stop
         offset="1"
         stop-color="#1287de"
         id="stop13943" />
    </linearGradient>
    <linearGradient
       x1="23.977"
       y1="11.271"
       gradientTransform="matrix(2.1538 0 0 2.1535 -19.692 -19.768)"
       x2="23.977"
       gradientUnits="userSpaceOnUse"
       y2="36.953"
       id="linearGradient5722">
      <stop
         offset="0"
         stop-color="#7dec40"
         id="stop7333-5" />
      <stop
         offset="1"
         stop-color="#44a410"
         id="stop7335-8" />
    </linearGradient>
    <linearGradient
       y2="153.5"
       x2="-493.36"
       gradientTransform="translate(526.36,-120)"
       y1="153.5"
       gradientUnits="userSpaceOnUse"
       x1="-494.36"
       id="linearGradient4881">
      <stop
         offset="0"
         id="stop4877" />
      <stop
         offset="1"
         stop-opacity="0"
         id="stop4879" />
    </linearGradient>
    <linearGradient
       y2="153.5"
       x2="-493.36"
       gradientTransform="matrix(-1,0,0,1,-462.36,-120)"
       y1="153.5"
       gradientUnits="userSpaceOnUse"
       x1="-494.36"
       id="linearGradient4913">
      <stop
         offset="0"
         stop-color="#f5f4f4"
         id="stop4909" />
      <stop
         offset="1"
         stop-opacity="0"
         stop-color="#f5f4f4"
         id="stop4911" />
    </linearGradient>
    <linearGradient
       x1="23.976999"
       y1="11.271"
       gradientTransform="matrix(0.69349419,0,0,0.69339759,15.195197,21.323041)"
       x2="23.976999"
       gradientUnits="userSpaceOnUse"
       y2="36.952999"
       id="linearGradient5722-3">
      <stop
         offset="0"
         stop-color="#7dec40"
         id="stop7333-5-5" />
      <stop
         offset="1"
         stop-color="#44a410"
         id="stop7335-8-6" />
    </linearGradient>
  </defs>
  <metadata
     id="metadata7">
    <rdf:RDF>
      <cc:Work
         rdf:about="">
        <dc:format>image/svg+xml</dc:format>
        <dc:type
           rdf:resource="http://purl.org/dc/dcmitype/StillImage" />
        <dc:title />
      </cc:Work>
    </rdf:RDF>
  </metadata>
  <path
     sodipodi:nodetypes="sssssssssss"
     d="M 10,8 C 7.784,8 6,9.784 6,12 l 0,21 c 0,2.216 1.784,4 4,4 l 44,0 c 2.216,0 4,-1.784 4,-4 l 0,-21 c 0,-1 -1,-2 -2,-2 L 23,10 C 21,10 20,8 18,8 Z"
     style="color:#000000;isolation:auto;mix-blend-mode:normal;solid-color:#000000;fill:#28618c;fill-opacity:1;color-rendering:auto;image-rendering:auto;shape-rendering:auto"
     id="rect5610-0-8-1"
     inkscape:connector-curvature="0" />
  <path
     sodipodi:nodetypes="csscsssccscc"
     inkscape:connector-curvature="0"
     d="m 46,16 c -3,0 -4,2 -6,2 L 6,18 c -1.3617,0 -2,0.5585 -2,2 l 0,32 c 0,2.216 1.784,4 4,4 l 48,0 c 2.216,0 4.0014,-1.784 4,-4 l 0,-32 c 0,-1.7929 -1.79492,-4.2187 -4.0039,-3.9978 l -10,0 z"
     style="color:#000000;isolation:auto;mix-blend-mode:normal;solid-color:#000000;fill:url(#linearGradient4797);fill-opacity:1.0;color-rendering:auto;image-rendering:auto;shape-rendering:auto"
     id="rect5605-5-9-5-9-3" />
  <path
     sodipodi:nodetypes="ccssccsscc"
     inkscape:connector-curvature="0"
     d="m 4,51 0,1 c 0.001,2.216 1.784,4 4,4 l 48,0 c 2.216,0 4.0014,-1.784 4,-4 l 0,-0.9941 c -0.002,2.213 -1.786,3.994 -4,3.994 l -48,0 c -2.216,0 -3.9986,-1.784 -4,-4 z"
     style="color:#000000;isolation:auto;mix-blend-mode:normal;solid-color:#000000;fill:#0566af;color-rendering:auto;image-rendering:auto;shape-rendering:auto"
     id="rect5605-5-9-5-9-9" />
  <path
     sodipodi:nodetypes="cssscssccscsscc"
     inkscape:connector-curvature="0"
     id="rect5605-5-9-5-9-3-5"
     d="m 46,16 c -3,0 -4,2 -6,2 L 6,18 c -1.3617,0 -2,0.5585 -2,2 l 0,1 c 0,-1.4415 0.6383,-2 2,-2 l 34,0 c 2,0 3,-2 6,-2 l -0.004,0 10,0 c 2.21999,0 4.0039,2.2051 4.0039,3.998 l 0,-1 c 0,-1.7929 -1.78391,-3.9981 -4.00391,-3.9981 l -10,0 z"
     style="color:#000000;isolation:auto;mix-blend-mode:normal;solid-color:#000000;fill:#9cc4e0;color-rendering:auto;image-rendering:auto;shape-rendering:auto" />
  <rect
     id="rect5679-96-6-3-9-1"
     style="color:#000000;opacity:1;isolation:auto;mix-blend-mode:normal;solid-color:#000000;fill:#1287de;color-rendering:auto;image-rendering:auto;shape-rendering:auto"
     height="1.0000174"
     width="11.999985"
     y="44.999981"
     x="4.0000153" />
  <rect
     width="0"
     x="43.381725"
     y="10.116561"
     height="14.668059"
     style="fill:#4d4d4d"
     id="rect4035" />
  <rect
     width="0"
     x="50.342297"
     y="32.68718"
     height="14.668059"
     style="fill:#4d4d4d"
     id="rect4035-8" />
  <rect
     width="0"
     x="52.15559"
     y="31.626448"
     height="14.668059"
     style="fill:#4d4d4d"
     id="rect4035-0" />
  <rect
     width="0"
     x="26.225475"
     y="6.3353109"
     height="14.668059"
     style="fill:#4d4d4d"
     id="rect4035-06" />
  <rect
     width="0"
     x="33.186047"
     y="28.905928"
     height="14.668059"
     style="fill:#4d4d4d"
     id="rect4035-8-7" />
  <rect
     width="0"
     x="34.99934"
     y="27.845198"
     height="14.668059"
     style="fill:#4d4d4d"
     id="rect4035-0-42" />
  <rect
     width="0"
     x="26.225475"
     y="6.3353109"
     height="14.668059"
     style="fill:#4d4d4d"
     id="rect4035-3" />
  <rect
     width="0"
     x="33.186047"
     y="28.905928"
     height="14.668059"
     style="fill:#4d4d4d"
     id="rect4035-8-9" />
  <rect
     width="0"
     x="34.99934"
     y="27.845198"
     height="14.668059"
     style="fill:#4d4d4d"
     id="rect4035-0-4" />
  <rect
     width="0"
     x="26.225475"
     y="6.3353109"
     height="14.668059"
     style="fill:#4d4d4d"
     id="rect4035-2" />
  <rect
     width="0"
     x="33.186047"
     y="28.905928"
     height="14.668059"
     style="fill:#4d4d4d"
     id="rect4035-8-99" />
  <rect
     width="0"
     x="34.99934"
     y="27.845198"
     height="14.668059"
     style="fill:#4d4d4d"
     id="rect4035-0-43" />
  <rect
     width="0"
     x="26.225475"
     y="6.3353109"
     height="14.668059"
     style="fill:#4d4d4d"
     id="rect4035-3-9" />
  <rect
     width="0"
     x="33.186047"
     y="28.905928"
     height="14.668059"
     style="fill:#4d4d4d"
     id="rect4035-8-9-9" />
  <rect
     width="0"
     x="34.99934"
     y="27.845198"
     height="14.668059"
     style="fill:#4d4d4d"
     id="rect4035-0-4-4" />
  <rect
     width="0"
     x="96.49559"
     y="27.624739"
     height="10.999983"
     style="fill:#4d4d4d"
     id="rect4035-5" />
  <rect
     width="0"
     x="91.943588"
     y="30.143843"
     height="10.999983"
     style="fill:#4d4d4d"
     id="rect4035-7" />
  <rect
     width="0"
     x="87.435806"
     y="17.725264"
     height="10.999983"
     style="fill:#4d4d4d"
     id="rect4035-9" />
  <rect
     width="0"
     x="88.279831"
     y="29.96269"
     height="10.999983"
     style="fill:#4d4d4d"
     id="rect4035-96" />
  <rect
     width="0"
     x="83.727829"
     y="32.481796"
     height="10.999983"
     style="fill:#4d4d4d"
     id="rect4035-7-0" />
  <rect
     width="0"
     x="79.220047"
     y="20.063215"
     height="10.999983"
     style="fill:#4d4d4d"
     id="rect4035-9-6" />
  <rect
     width="0"
     x="96.49559"
     y="27.624739"
     height="10.999983"
     style="fill:#4d4d4d"
     id="rect4035-1" />
  <rect
     width="0"
     x="91.943588"
     y="30.143843"
     height="10.999983"
     style="fill:#4d4d4d"
     id="rect4035-7-2" />
  <rect
     width="0"
     x="87.435806"
     y="17.725264"
     height="10.999983"
     style="fill:#4d4d4d"
     id="rect4035-9-0" />
  <rect
     width="0"
     x="88.279831"
     y="29.96269"
     height="10.999983"
     style="fill:#4d4d4d"
     id="rect4035-96-9" />
  <rect
     width="0"
     x="83.727829"
     y="32.481796"
     height="10.999983"
     style="fill:#4d4d4d"
     id="rect4035-7-0-9" />
  <rect
     width="0"
     x="79.220047"
     y="20.063215"
     height="10.999983"
     style="fill:#4d4d4d"
     id="rect4035-9-6-9" />
  <rect
     id="rect5679-96-6-3-9-1-3"
     style="color:#000000;opacity:1;isolation:auto;mix-blend-mode:normal;solid-color:#000000;fill:#1287de;color-rendering:auto;image-rendering:auto;shape-rendering:auto"
     height="1.0000174"
     width="12"
     y="44.999981"
     x="48" />
  <path
     style="color:#000000;clip-rule:nonzero;display:inline;overflow:visible;visibility:visible;opacity:1;isolation:auto;mix-blend-mode:normal;color-interpolation:sRGB;color-interpolation-filters:linearRGB;solid-color:#000000;solid-opacity:1;fill:#0566af;fill-opacity:1;fill-rule:nonzero;stroke:none;stroke-width:2;stroke-linecap:butt;stroke-linejoin:miter;stroke-miterlimit:4;stroke-dasharray:none;stroke-dashoffset:0;stroke-opacity:1;color-rendering:auto;image-rendering:auto;shape-rendering:auto;text-rendering:auto;enable-background:accumulate"
     d="M 32 28 A 10 10 0 0 0 22 38 A 10 10 0 0 0 32 48 A 10 10 0 0 0 42 38 A 10 10 0 0 0 32 28 z M 32 30 A 8 8 0 0 1 40 38 A 8 8 0 0 1 32 46 A 8 8 0 0 1 24 38 A 8 8 0 0 1 32 30 z "
     id="path4187" />
  <path
     d="m 31.838993,28.98242 c -0.654663,0 -1.291326,0.07209 -1.905064,0.203138 L 29,30 27.926666,29.879696 c -2.166647,1.041433 -3.84484,2.917004 -4.622436,5.221331 l 1.773275,-0.709368 1.352343,0.901433 0.450781,-1.352118 5.860152,-3.155112 -0.357083,-1.785478 c -0.180313,-0.01094 -0.361269,-0.01739 -0.544479,-0.01739 m 6.676064,2.960214 -0.365454,1.096267 0.45078,0.450684 -1.80309,2.7043 0.90153,3.155047 2.989675,0.374469 c 0.108146,-0.579281 0.16608,-1.158567 0.16608,-1.737852 0,-1.543474 -0.386287,-2.992799 -1.064519,-4.260845 l -0.738636,-0.246964 0.268536,-0.538039 c -0.24149,-0.357727 -0.515822,-0.690016 -0.804322,-1.008783 m -15.512659,4.251186 c -0.09917,0.493604 -0.156033,1.003952 -0.171972,1.524283 l 3.148479,1.180145 -0.450781,-1.352118 -0.901529,-1.352182 z m 2.976475,2.704299 2.25384,5.408726 0,1.955488 C 29.337578,46.730981 30.555331,47 31.839766,47 c 0.08946,0 0.177534,0 0.267001,-0.0071 l 2.888218,-4.951828 -7.212173,-4.056384 z"
     id="path7362-0-2"
     inkscape:connector-curvature="0"
     style="fill:#0566af;fill-rule:evenodd"
     sodipodi:nodetypes="cccccccccccccccccscccccccccccccscccc" />
</svg>
