<?xml version="1.0" encoding="UTF-8" standalone="no"?>
<!-- Created with Inkscape (http://www.inkscape.org/) -->

<svg
   xmlns:dc="http://purl.org/dc/elements/1.1/"
   xmlns:cc="http://creativecommons.org/ns#"
   xmlns:rdf="http://www.w3.org/1999/02/22-rdf-syntax-ns#"
   xmlns:svg="http://www.w3.org/2000/svg"
   xmlns="http://www.w3.org/2000/svg"
   xmlns:xlink="http://www.w3.org/1999/xlink"
   xmlns:sodipodi="http://sodipodi.sourceforge.net/DTD/sodipodi-0.dtd"
   xmlns:inkscape="http://www.inkscape.org/namespaces/inkscape"
   id="svg2"
   height="64"
   viewBox="0 0 64 64.000001"
   width="64"
   version="1.1"
   inkscape:version="0.91 r13725"
   sodipodi:docname="user-trash-full.svg">
  <sodipodi:namedview
     pagecolor="#ffffff"
     bordercolor="#666666"
     borderopacity="1"
     objecttolerance="10"
     gridtolerance="10"
     guidetolerance="10"
     inkscape:pageopacity="0"
     inkscape:pageshadow="2"
     inkscape:window-width="1837"
     inkscape:window-height="1574"
     id="namedview31"
     showgrid="false"
     inkscape:snap-bbox="true"
     inkscape:zoom="1"
     inkscape:cx="27.598115"
     inkscape:cy="12.888561"
     inkscape:window-x="1685"
     inkscape:window-y="182"
     inkscape:window-maximized="0"
     inkscape:current-layer="svg2"
     inkscape:bbox-nodes="true"
     inkscape:object-nodes="true">
    <inkscape:grid
       type="xygrid"
       id="grid4159" />
  </sodipodi:namedview>
  <defs
     id="defs4">
    <linearGradient
       inkscape:collect="always"
       id="linearGradient4166">
      <stop
         style="stop-color:#ec4040;stop-opacity:1"
         offset="0"
         id="stop4168" />
      <stop
         style="stop-color:#ac0808;stop-opacity:1"
         offset="1"
         id="stop4170" />
    </linearGradient>
    <linearGradient
       id="linearGradient9969"
       y2="1030.4"
       gradientUnits="userSpaceOnUse"
       x2="16"
       gradientTransform="translate(0 -983.44)"
       y1="1029.4"
       x1="16">
      <stop
         id="stop7403-3"
         stop-color="#fff"
         offset="0" />
      <stop
         id="stop7405-5"
         stop-opacity="0"
         stop-color="#fff"
         offset="1" />
    </linearGradient>
    <linearGradient
       id="linearGradient8837"
       y2="1030.4"
       gradientUnits="userSpaceOnUse"
       x2="16"
       gradientTransform="matrix(1.1458,0,0,-1,-3.17,1075.3)"
       y1="1029.4"
       x1="16">
      <stop
         id="stop4904-2"
         offset="0" />
      <stop
         id="stop4906-9"
         stop-opacity="0"
         offset="1" />
    </linearGradient>
    <linearGradient
       id="linearGradient9967-9"
       y2="999.11401"
       gradientUnits="userSpaceOnUse"
       x2="12"
       gradientTransform="translate(0 -984.4)"
       y1="1040.4"
       x1="12">
      <stop
         id="stop8173-6-2"
         stop-color="#39a4f3"
         offset="0" />
      <stop
         id="stop8175-7-02"
         stop-color="#0566af"
         offset="1"
         style="stop-color:#37a4f5;stop-opacity:1" />
    </linearGradient>
    <linearGradient
       id="linearGradient9967-9-3"
       y2="999.11401"
       gradientUnits="userSpaceOnUse"
       x2="12"
       gradientTransform="translate(0,-984.4)"
       y1="1040.4"
       x1="12">
      <stop
         id="stop8173-6-2-6"
         stop-color="#39a4f3"
         offset="0" />
      <stop
         id="stop8175-7-02-7"
         stop-color="#0566af"
         offset="1"
         style="stop-color:#37a4f5;stop-opacity:1" />
    </linearGradient>
    <linearGradient
       id="linearGradient9967-9-35"
       y2="999.11401"
       gradientUnits="userSpaceOnUse"
       x2="12"
       gradientTransform="translate(0,-983.4)"
       y1="1040.4"
       x1="12">
      <stop
         id="stop8173-6-2-62"
         stop-color="#39a4f3"
         offset="0" />
      <stop
         id="stop8175-7-02-9"
         stop-color="#0566af"
         offset="1"
         style="stop-color:#37a4f5;stop-opacity:1" />
    </linearGradient>
    <linearGradient
       inkscape:collect="always"
       xlink:href="#linearGradient4166"
       id="linearGradient4172"
       x1="30"
       y1="16"
       x2="30"
       y2="56"
       gradientUnits="userSpaceOnUse" />
  </defs>
  <metadata
     id="metadata7">
    <rdf:RDF>
      <cc:Work
         rdf:about="">
        <dc:format>image/svg+xml</dc:format>
        <dc:type
           rdf:resource="http://purl.org/dc/dcmitype/StillImage" />
        <dc:title />
      </cc:Work>
    </rdf:RDF>
  </metadata>
  <path
     sodipodi:nodetypes="sssssssssss"
     d="M 10,8 C 7.784,8 6,9.784 6,12 l 0,21 c 0,2.216 1.784,4 4,4 l 44,0 c 2.216,0 4,-1.784 4,-4 l 0,-21 c 0,-1 -1,-2 -2,-2 L 23,10 C 21,10 20,8 18,8 Z"
     style="color:#000000;isolation:auto;mix-blend-mode:normal;solid-color:#000000;fill:#ac0808;fill-opacity:1;color-rendering:auto;image-rendering:auto;shape-rendering:auto"
     id="rect5610-0-8-1"
     inkscape:connector-curvature="0" />
  <path
     sodipodi:nodetypes="csscsssccscc"
     inkscape:connector-curvature="0"
     d="m 46,16 c -3,0 -4,2 -6,2 L 6,18 c -1.3617,0 -2,0.5585 -2,2 l 0,32 c 0,2.216 1.784,4 4,4 l 48,0 c 2.216,0 4.0014,-1.784 4,-4 l 0,-32 c 0,-1.7929 -1.79492,-4.2187 -4.0039,-3.9978 l -10,0 z"
     style="color:#000000;isolation:auto;mix-blend-mode:normal;solid-color:#000000;fill:url(#linearGradient4172);fill-opacity:1;color-rendering:auto;image-rendering:auto;shape-rendering:auto"
     id="rect5605-5-9-5-9-3" />
  <path
     sodipodi:nodetypes="ccssccsscc"
     inkscape:connector-curvature="0"
     d="m 4,51 0,1 c 0.001,2.216 1.784,4 4,4 l 48,0 c 2.216,0 4.0014,-1.784 4,-4 l 0,-0.9941 c -0.002,2.213 -1.786,3.994 -4,3.994 l -48,0 c -2.216,0 -3.9986,-1.784 -4,-4 z"
     style="color:#000000;isolation:auto;mix-blend-mode:normal;solid-color:#000000;fill:#600404;color-rendering:auto;image-rendering:auto;shape-rendering:auto"
     id="rect5605-5-9-5-9-9" />
  <path
     sodipodi:nodetypes="cssscssccscsscc"
     inkscape:connector-curvature="0"
     id="rect5605-5-9-5-9-3-5"
     d="m 46,16 c -3,0 -4,2 -6,2 L 6,18 c -1.3617,0 -2,0.5585 -2,2 l 0,1 c 0,-1.4415 0.6383,-2 2,-2 l 34,0 c 2,0 3,-2 6,-2 l -0.004,0 10,0 c 2.21999,0 4.0039,2.2051 4.0039,3.998 l 0,-1 c 0,-1.7929 -1.78391,-3.9981 -4.00391,-3.9981 l -10,0 z"
     style="color:#000000;isolation:auto;mix-blend-mode:normal;solid-color:#000000;fill:#f58787;color-rendering:auto;image-rendering:auto;shape-rendering:auto" />
  <path
     style="fill:#600404;fill-rule:evenodd;stroke:none;stroke-width:1px;stroke-linecap:butt;stroke-linejoin:miter;stroke-opacity:1"
     d="m 24,32 2,16 12,0 2,-16 z m 2.53033,2 11.027728,0 L 36,46 28,46 Z"
     id="path4201"
     inkscape:connector-curvature="0"
     sodipodi:nodetypes="cccccccccc" />
  <path
     inkscape:connector-curvature="0"
     style="color:#000000;clip-rule:nonzero;display:inline;overflow:visible;visibility:visible;opacity:1;isolation:auto;mix-blend-mode:normal;color-interpolation:sRGB;color-interpolation-filters:linearRGB;solid-color:#000000;solid-opacity:1;fill:#600404;fill-opacity:1;fill-rule:nonzero;stroke:none;stroke-width:2;stroke-linecap:butt;stroke-linejoin:miter;stroke-miterlimit:4;stroke-dasharray:none;stroke-dashoffset:0;stroke-opacity:1;color-rendering:auto;image-rendering:auto;shape-rendering:auto;text-rendering:auto;enable-background:accumulate"
     d="m 30,26 0,2 -6,0 0,2 16,0 0,-2 -6,0 0,-2 -4,0 z"
     id="rect4201" />
  <rect
     id="rect5679-96-6-3-9-1-36"
     style="color:#000000;opacity:1;isolation:auto;mix-blend-mode:normal;solid-color:#000000;fill:#ac0808;color-rendering:auto;image-rendering:auto;shape-rendering:auto"
     height="1.0000174"
     width="11.999985"
     y="44.999981"
     x="4.0000153" />
  <rect
     id="rect5679-96-6-3-9-1-3"
     style="color:#000000;opacity:1;isolation:auto;mix-blend-mode:normal;solid-color:#000000;fill:#ac0808;color-rendering:auto;image-rendering:auto;shape-rendering:auto"
     height="1.0000174"
     width="12"
     y="44.999981"
     x="48" />
</svg>
