<?xml version="1.0" encoding="UTF-8" standalone="no"?>
<!-- Created with Inkscape (http://www.inkscape.org/) -->

<svg
   xmlns:dc="http://purl.org/dc/elements/1.1/"
   xmlns:cc="http://creativecommons.org/ns#"
   xmlns:rdf="http://www.w3.org/1999/02/22-rdf-syntax-ns#"
   xmlns:svg="http://www.w3.org/2000/svg"
   xmlns="http://www.w3.org/2000/svg"
   xmlns:xlink="http://www.w3.org/1999/xlink"
   xmlns:sodipodi="http://sodipodi.sourceforge.net/DTD/sodipodi-0.dtd"
   xmlns:inkscape="http://www.inkscape.org/namespaces/inkscape"
   id="svg2"
   height="16"
   width="16"
   version="1.1"
   viewBox="0 0 16 16"
   inkscape:version="0.91 r13725"
   sodipodi:docname="folder_html.svg">
  <sodipodi:namedview
     pagecolor="#ffffff"
     bordercolor="#666666"
     borderopacity="1"
     objecttolerance="10"
     gridtolerance="10"
     guidetolerance="10"
     inkscape:pageopacity="0"
     inkscape:pageshadow="2"
     inkscape:window-width="3840"
     inkscape:window-height="2045"
     id="namedview34"
     showgrid="true"
     inkscape:object-nodes="true"
     inkscape:snap-smooth-nodes="true"
     inkscape:zoom="64"
     inkscape:cx="3.8873842"
     inkscape:cy="4.6839819"
     inkscape:window-x="0"
     inkscape:window-y="0"
     inkscape:window-maximized="1"
     inkscape:current-layer="svg2">
    <inkscape:grid
       type="xygrid"
       id="grid4162" />
  </sodipodi:namedview>
  <defs
     id="defs4">
    <linearGradient
       id="linearGradient7407-0-7"
       y2="1184.4"
       gradientUnits="userSpaceOnUse"
       x2="513"
       gradientTransform="translate(-500.04,-1146.36)"
       y1="1184.4"
       x1="512">
      <stop
         id="stop7403"
         stop-color="#fcfcfc"
         offset="0" />
      <stop
         id="stop7405"
         stop-color="#fcfcfc"
         stop-opacity="0"
         offset="1" />
    </linearGradient>
    <linearGradient
       id="linearGradient7397-4-5"
       y2="196"
       gradientUnits="userSpaceOnUse"
       x2="514"
       gradientTransform="matrix(0,-1.1483051,1,0,-158,601.03051)"
       y1="196"
       x1="513">
      <stop
         id="stop7393"
         stop-color="#172525"
         offset="0"
         style="stop-color:#000000;stop-opacity:1" />
      <stop
         id="stop7395"
         stop-color="#172525"
         stop-opacity="0"
         offset="1"
         style="stop-color:#000000;stop-opacity:0" />
    </linearGradient>
    <linearGradient
       id="linearGradient7301-2-8-6"
       y2="1186.4"
       gradientUnits="userSpaceOnUse"
       x2="521"
       gradientTransform="matrix(0,-1,0.99423,0,-1139.53,524)"
       y1="1186.4"
       x1="509">
      <stop
         id="stop8173"
         stop-color="#54a3d8"
         offset="0" />
      <stop
         id="stop8175"
         stop-color="#3b85b5"
         offset="1" />
    </linearGradient>
    <linearGradient
       id="linearGradient8837"
       y2="1030.4"
       gradientUnits="userSpaceOnUse"
       x2="16"
       gradientTransform="matrix(1.1458,0,0,-1,-73.17,1037.3)"
       y1="1029.4"
       x1="16">
      <stop
         id="stop4904-2"
         offset="0" />
      <stop
         id="stop4906-9"
         stop-opacity="0"
         offset="1" />
    </linearGradient>
    <linearGradient
       id="linearGradient9969"
       y2="1030.4"
       gradientUnits="userSpaceOnUse"
       x2="16"
       gradientTransform="translate(-70,-1021.44)"
       y1="1029.4"
       x1="16">
      <stop
         id="stop7403-3"
         stop-color="#fff"
         offset="0" />
      <stop
         id="stop7405-5"
         stop-opacity="0"
         stop-color="#fff"
         offset="1" />
    </linearGradient>
    <linearGradient
       id="linearGradient9967-9"
       y2="1011.4"
       gradientUnits="userSpaceOnUse"
       x2="12.213"
       gradientTransform="translate(-70,-1022.4)"
       y1="1040.4"
       x1="12">
      <stop
         id="stop8173-6-2"
         stop-color="#39a4f3"
         offset="0" />
      <stop
         id="stop8175-7-02"
         stop-color="#0566af"
         offset="1" />
    </linearGradient>
    <linearGradient
       id="linearGradient8837-7-9"
       y2="1030.4"
       gradientUnits="userSpaceOnUse"
       x2="16"
       gradientTransform="matrix(1.1458,0,0,-1,132.82999,2059.6622)"
       y1="1029.4"
       x1="16">
      <stop
         id="stop4904-2-9-4"
         offset="0" />
      <stop
         id="stop4906-9-20-7"
         stop-opacity="0"
         offset="1" />
    </linearGradient>
    <linearGradient
       id="linearGradient9969-2-2"
       y2="1030.4"
       gradientUnits="userSpaceOnUse"
       x2="16"
       gradientTransform="translate(-4,-0.07779962)"
       y1="1029.4"
       x1="16">
      <stop
         id="stop7403-3-3-9"
         stop-color="#fff"
         offset="0" />
      <stop
         id="stop7405-5-7-3"
         stop-opacity="0"
         stop-color="#fff"
         offset="1" />
    </linearGradient>
    <linearGradient
       inkscape:collect="always"
       xlink:href="#linearGradient5769"
       id="linearGradient5775-7"
       x1="-29"
       y1="1060.3622"
       x2="-29"
       y2="1050.3622"
       gradientUnits="userSpaceOnUse"
       gradientTransform="translate(36.000001,-1045.3622)" />
    <linearGradient
       inkscape:collect="always"
       id="linearGradient5769">
      <stop
         style="stop-color:#37a4f5;stop-opacity:1;"
         offset="0"
         id="stop5771" />
      <stop
         style="stop-color:#609ecc;stop-opacity:1"
         offset="1"
         id="stop5773" />
    </linearGradient>
  </defs>
  <metadata
     id="metadata7">
    <rdf:RDF>
      <cc:Work
         rdf:about="">
        <dc:format>image/svg+xml</dc:format>
        <dc:type
           rdf:resource="http://purl.org/dc/dcmitype/StillImage" />
        <dc:title />
      </cc:Work>
    </rdf:RDF>
  </metadata>
  <path
     sodipodi:nodetypes="sssssssssss"
     inkscape:connector-curvature="0"
     id="rect5703-28-8"
     d="M 3.000018,1 5.00001,1 c 1.490707,0 1.509276,1 2.999982,1 l 4.999992,0 c 1.108009,0 2.000017,0.892 2.000017,2 l 0,3 c 0,1.108 -0.892008,2 -2.000017,2 L 3.000018,9 C 1.892009,9 1.000001,8.108 1.000001,7 l 0,-4 c 0,-1.108 0.892008,-2 2.000017,-2 z"
     style="color:#000000;clip-rule:nonzero;display:inline;overflow:visible;visibility:visible;opacity:1;isolation:auto;mix-blend-mode:normal;color-interpolation:sRGB;color-interpolation-filters:linearRGB;solid-color:#000000;solid-opacity:1;fill:#28618c;fill-opacity:1;fill-rule:nonzero;stroke:none;stroke-width:2;stroke-linecap:butt;stroke-linejoin:miter;stroke-miterlimit:4;stroke-dasharray:none;stroke-dashoffset:0;stroke-opacity:1;color-rendering:auto;image-rendering:auto;shape-rendering:auto;text-rendering:auto;enable-background:accumulate" />
  <path
     sodipodi:nodetypes="sssssssssss"
     inkscape:connector-curvature="0"
     id="rect5703-2-9-8"
     d="M 12.999984,3 10.999993,3 C 9.509286,3 9.490717,4 8.00001,4 L 3.000018,4 C 1.892009,4 1.000001,4.892 1.000001,6 l 0,7 c 0,1.108 0.892008,2 2.000017,2 l 9.999966,0 c 1.108009,0 2.000017,-0.892 2.000017,-2 l 0,-8 c 0,-1.1081 -0.892008,-2 -2.000017,-2 z"
     style="color:#000000;clip-rule:nonzero;display:inline;overflow:visible;visibility:visible;opacity:1;isolation:auto;mix-blend-mode:normal;color-interpolation:sRGB;color-interpolation-filters:linearRGB;solid-color:#000000;solid-opacity:1;fill:url(#linearGradient5775-7);fill-opacity:1;fill-rule:nonzero;stroke:none;stroke-width:2;stroke-linecap:butt;stroke-linejoin:miter;stroke-miterlimit:4;stroke-dasharray:none;stroke-dashoffset:0;stroke-opacity:1;color-rendering:auto;image-rendering:auto;shape-rendering:auto;text-rendering:auto;enable-background:accumulate" />
  <rect
     x="0.9999994"
     y="10.999982"
     width="1.0000006"
     height="1.0000174"
     style="color:#000000;opacity:1;isolation:auto;mix-blend-mode:normal;solid-color:#000000;fill:#1287de;color-rendering:auto;image-rendering:auto;shape-rendering:auto"
     id="rect5679-96-6-3-9-1-7-5" />
  <path
     sodipodi:nodetypes="csssscssc"
     inkscape:connector-curvature="0"
     id="rect5703-2-9-2-0"
     d="m 1.000001,12 0,1 c 0,1.108 0.891991,2 2,2 l 10,0 c 1.108009,0 2,-0.892 2,-2 l 0,-1 c 0,1.108 -0.891991,2 -2,2 l -10,0 c -1.108009,0 -2,-0.892 -2,-2 z"
     style="color:#000000;clip-rule:nonzero;display:inline;overflow:visible;visibility:visible;opacity:1;isolation:auto;mix-blend-mode:normal;color-interpolation:sRGB;color-interpolation-filters:linearRGB;solid-color:#000000;solid-opacity:1;fill:#1287de;fill-opacity:1;fill-rule:nonzero;stroke:none;stroke-width:2;stroke-linecap:butt;stroke-linejoin:miter;stroke-miterlimit:4;stroke-dasharray:none;stroke-dashoffset:0;stroke-opacity:1;color-rendering:auto;image-rendering:auto;shape-rendering:auto;text-rendering:auto;enable-background:accumulate" />
  <path
     sodipodi:nodetypes="sscsscsss"
     inkscape:connector-curvature="0"
     id="rect5703-2-9-4-9"
     d="m 3.000001,3 c -1.108009,0 -2,0.892 -2,2 l 0,1 c 0,-1.108 0.891991,-2 2,-2 l 10,0 c 1.108009,0 2,0.8919 2,2 l 0,-1 c 0,-1.1081 -0.891991,-2 -2,-2 z"
     style="color:#000000;clip-rule:nonzero;display:inline;overflow:visible;visibility:visible;opacity:1;isolation:auto;mix-blend-mode:normal;color-interpolation:sRGB;color-interpolation-filters:linearRGB;solid-color:#000000;solid-opacity:1;fill:#82c8fa;fill-opacity:1;fill-rule:nonzero;stroke:none;stroke-width:2;stroke-linecap:butt;stroke-linejoin:miter;stroke-miterlimit:4;stroke-dasharray:none;stroke-dashoffset:0;stroke-opacity:1;color-rendering:auto;image-rendering:auto;shape-rendering:auto;text-rendering:auto;enable-background:accumulate" />
  <rect
     x="14"
     y="11"
     width="1.0000006"
     height="1.0000174"
     style="color:#000000;opacity:1;isolation:auto;mix-blend-mode:normal;solid-color:#000000;fill:#1287de;color-rendering:auto;image-rendering:auto;shape-rendering:auto"
     id="rect5679-96-6-3-9-1-7-5-3" />
  <g
     id="g4169"
     transform="matrix(0.7905568,0,0,0.7905568,1.6755456,1.8849888)">
    <path
       inkscape:connector-curvature="0"
       style="color:#000000;clip-rule:nonzero;display:inline;overflow:visible;visibility:visible;opacity:1;isolation:auto;mix-blend-mode:normal;color-interpolation:sRGB;color-interpolation-filters:linearRGB;solid-color:#000000;solid-opacity:1;fill:#0566af;fill-opacity:1;fill-rule:nonzero;stroke:none;stroke-width:2;stroke-linecap:butt;stroke-linejoin:miter;stroke-miterlimit:4;stroke-dasharray:none;stroke-dashoffset:0;stroke-opacity:1;color-rendering:auto;image-rendering:auto;shape-rendering:auto;text-rendering:auto;enable-background:accumulate"
       d="M 8,4 A 5,5 0 0 0 3,9 5,5 0 0 0 8,14 5,5 0 0 0 13,9 5,5 0 0 0 8,4 Z M 8,5 A 4,4 0 0 1 12,9 4,4 0 0 1 8,13 4,4 0 0 1 4,9 4,4 0 0 1 8,5 Z"
       id="path4187" />
    <path
       d="m 7.9194965,4.49121 c -0.3273315,0 -0.645663,0.036045 -0.952532,0.101569 L 6.5,5 5.963333,4.939848 C 4.8800095,5.4605645 4.040913,6.39835 3.652115,7.5505135 L 4.5387525,7.1958295 5.214924,7.646546 5.4403145,6.970487 8.3703905,5.392931 8.191849,4.500192 C 8.101693,4.494722 8.0112145,4.491492 7.9196095,4.491492 m 3.3380325,1.480107 -0.182727,0.5481335 0.22539,0.225342 -0.901545,1.35215 0.450765,1.5775235 1.494837,0.1872345 c 0.05407,-0.2896405 0.08304,-0.5792835 0.08304,-0.868926 0,-0.771737 -0.193143,-1.4963995 -0.532259,-2.1304225 L 11.525825,6.739157 11.660093,6.4701375 C 11.539348,6.291274 11.402182,6.1251295 11.257932,5.965746 M 3.501602,8.091339 C 3.452017,8.338141 3.4235855,8.593315 3.415616,8.8534805 L 4.9898555,9.443553 4.764465,8.767494 4.3137005,8.091403 Z m 1.4882375,1.3521495 1.12692,2.7043635 0,0.977744 C 6.668789,13.365491 7.2776655,13.5 7.919883,13.5 c 0.04473,0 0.088767,0 0.1335005,-0.0036 L 9.4974925,11.020536 5.891406,8.992344 Z"
       id="path7362-0-2"
       inkscape:connector-curvature="0"
       style="fill:#0566af;fill-rule:evenodd"
       sodipodi:nodetypes="cccccccccccccccccscccccccccccccscccc" />
  </g>
</svg>
