<?xml version="1.0" encoding="UTF-8" standalone="no"?>
<!-- Created with Inkscape (http://www.inkscape.org/) -->

<svg
   xmlns:dc="http://purl.org/dc/elements/1.1/"
   xmlns:cc="http://creativecommons.org/ns#"
   xmlns:rdf="http://www.w3.org/1999/02/22-rdf-syntax-ns#"
   xmlns:svg="http://www.w3.org/2000/svg"
   xmlns="http://www.w3.org/2000/svg"
   xmlns:xlink="http://www.w3.org/1999/xlink"
   xmlns:sodipodi="http://sodipodi.sourceforge.net/DTD/sodipodi-0.dtd"
   xmlns:inkscape="http://www.inkscape.org/namespaces/inkscape"
   id="svg2"
   height="22"
   width="22"
   version="1.1"
   viewBox="0 0 22 22"
   inkscape:version="0.91 r13725"
   sodipodi:docname="folder-cloud.svg">
  <sodipodi:namedview
     pagecolor="#ffffff"
     bordercolor="#666666"
     borderopacity="1"
     objecttolerance="10"
     gridtolerance="10"
     guidetolerance="10"
     inkscape:pageopacity="0"
     inkscape:pageshadow="2"
     inkscape:window-width="1782"
     inkscape:window-height="1127"
     id="namedview34"
     showgrid="true"
     inkscape:object-nodes="true"
     inkscape:snap-smooth-nodes="true"
     inkscape:zoom="22.627417"
     inkscape:cx="-4.5349372"
     inkscape:cy="12.304317"
     inkscape:window-x="1563"
     inkscape:window-y="184"
     inkscape:window-maximized="0"
     inkscape:current-layer="svg2"
     inkscape:snap-bbox="true"
     inkscape:bbox-nodes="true">
    <inkscape:grid
       type="xygrid"
       id="grid4162" />
  </sodipodi:namedview>
  <defs
     id="defs4">
    <linearGradient
       id="linearGradient7407-0-7"
       y2="1184.4"
       gradientUnits="userSpaceOnUse"
       x2="513"
       gradientTransform="translate(-500.04,-1146.36)"
       y1="1184.4"
       x1="512">
      <stop
         id="stop7403"
         stop-color="#fcfcfc"
         offset="0" />
      <stop
         id="stop7405"
         stop-color="#fcfcfc"
         stop-opacity="0"
         offset="1" />
    </linearGradient>
    <linearGradient
       id="linearGradient7397-4-5"
       y2="196"
       gradientUnits="userSpaceOnUse"
       x2="514"
       gradientTransform="matrix(0,-1.1483051,1,0,-158,601.03051)"
       y1="196"
       x1="513">
      <stop
         id="stop7393"
         stop-color="#172525"
         offset="0"
         style="stop-color:#000000;stop-opacity:1" />
      <stop
         id="stop7395"
         stop-color="#172525"
         stop-opacity="0"
         offset="1"
         style="stop-color:#000000;stop-opacity:0" />
    </linearGradient>
    <linearGradient
       id="linearGradient7301-2-8-6"
       y2="1186.4"
       gradientUnits="userSpaceOnUse"
       x2="521"
       gradientTransform="matrix(0,-1,0.99423,0,-1139.53,524)"
       y1="1186.4"
       x1="509">
      <stop
         id="stop8173"
         stop-color="#54a3d8"
         offset="0" />
      <stop
         id="stop8175"
         stop-color="#3b85b5"
         offset="1" />
    </linearGradient>
    <linearGradient
       id="linearGradient8837"
       y2="1030.4"
       gradientUnits="userSpaceOnUse"
       x2="16"
       gradientTransform="matrix(1.1458,0,0,-1,-73.17,1037.3)"
       y1="1029.4"
       x1="16">
      <stop
         id="stop4904-2"
         offset="0" />
      <stop
         id="stop4906-9"
         stop-opacity="0"
         offset="1" />
    </linearGradient>
    <linearGradient
       id="linearGradient9969"
       y2="1030.4"
       gradientUnits="userSpaceOnUse"
       x2="16"
       gradientTransform="translate(-70,-1021.44)"
       y1="1029.4"
       x1="16">
      <stop
         id="stop7403-3"
         stop-color="#fff"
         offset="0" />
      <stop
         id="stop7405-5"
         stop-opacity="0"
         stop-color="#fff"
         offset="1" />
    </linearGradient>
    <linearGradient
       id="linearGradient9967-9"
       y2="1011.4"
       gradientUnits="userSpaceOnUse"
       x2="12.213"
       gradientTransform="translate(-70,-1022.4)"
       y1="1040.4"
       x1="12">
      <stop
         id="stop8173-6-2"
         stop-color="#39a4f3"
         offset="0" />
      <stop
         id="stop8175-7-02"
         stop-color="#0566af"
         offset="1" />
    </linearGradient>
    <linearGradient
       id="linearGradient8837-7-9"
       y2="1030.4"
       gradientUnits="userSpaceOnUse"
       x2="16"
       gradientTransform="matrix(1.1458,0,0,-1,132.82999,2059.6622)"
       y1="1029.4"
       x1="16">
      <stop
         id="stop4904-2-9-4"
         offset="0" />
      <stop
         id="stop4906-9-20-7"
         stop-opacity="0"
         offset="1" />
    </linearGradient>
    <linearGradient
       id="linearGradient9969-2-2"
       y2="1030.4"
       gradientUnits="userSpaceOnUse"
       x2="16"
       gradientTransform="translate(-4,-0.07779962)"
       y1="1029.4"
       x1="16">
      <stop
         id="stop7403-3-3-9"
         stop-color="#fff"
         offset="0" />
      <stop
         id="stop7405-5-7-3"
         stop-opacity="0"
         stop-color="#fff"
         offset="1" />
    </linearGradient>
    <linearGradient
       inkscape:collect="always"
       id="linearGradient5769">
      <stop
         style="stop-color:#37a4f5;stop-opacity:1;"
         offset="0"
         id="stop5771" />
      <stop
         style="stop-color:#609ecc;stop-opacity:1"
         offset="1"
         id="stop5773" />
    </linearGradient>
    <linearGradient
       x1="16"
       y1="1029.4"
       gradientTransform="translate(0 -983.44)"
       x2="16"
       gradientUnits="userSpaceOnUse"
       y2="1030.4"
       id="linearGradient9969-7">
      <stop
         offset="0"
         stop-color="#fff"
         id="stop7403-3-5" />
      <stop
         offset="1"
         stop-color="#fff"
         stop-opacity="0"
         id="stop7405-5-3" />
    </linearGradient>
    <linearGradient
       x1="16"
       y1="1029.4"
       gradientTransform="matrix(1.1458,0,0,-1,-3.17,1075.3)"
       x2="16"
       gradientUnits="userSpaceOnUse"
       y2="1030.4"
       id="linearGradient8837-5">
      <stop
         offset="0"
         id="stop4904-2-6" />
      <stop
         offset="1"
         stop-opacity="0"
         id="stop4906-9-2" />
    </linearGradient>
    <linearGradient
       x1="12"
       y1="1040.4"
       gradientTransform="translate(0 -984.4)"
       x2="12"
       gradientUnits="userSpaceOnUse"
       y2="999.11401"
       id="linearGradient9967-9-9">
      <stop
         offset="0"
         stop-color="#39a4f3"
         id="stop8173-6-2-1" />
      <stop
         style="stop-color:#37a4f5;stop-opacity:1"
         offset="1"
         stop-color="#0566af"
         id="stop8175-7-02-2" />
    </linearGradient>
    <linearGradient
       x1="12"
       y1="1040.4"
       gradientTransform="translate(0,-983.4)"
       x2="12"
       gradientUnits="userSpaceOnUse"
       y2="999.11401"
       id="linearGradient9967-9-35">
      <stop
         offset="0"
         stop-color="#39a4f3"
         id="stop8173-6-2-62" />
      <stop
         style="stop-color:#37a4f5;stop-opacity:1"
         offset="1"
         stop-color="#0566af"
         id="stop8175-7-02-9" />
    </linearGradient>
    <linearGradient
       gradientUnits="userSpaceOnUse"
       y2="14"
       x2="25"
       y1="56"
       x1="25"
       id="linearGradient4797"
       xlink:href="#linearGradient5769"
       inkscape:collect="always"
       gradientTransform="translate(-49.13985,-12.9983)" />
    <linearGradient
       x1="605.99"
       y1="1320.4"
       gradientTransform="matrix(1.7492 0 0 1.7494 -1119.9 -2277.9)"
       x2="638"
       gradientUnits="userSpaceOnUse"
       y2="1320.4"
       id="linearGradient5388">
      <stop
         offset="0"
         stop-color="#0566af"
         id="stop13941" />
      <stop
         offset="1"
         stop-color="#1287de"
         id="stop13943" />
    </linearGradient>
    <linearGradient
       x1="23.977"
       y1="11.271"
       gradientTransform="matrix(2.1538 0 0 2.1535 -19.692 -19.768)"
       x2="23.977"
       gradientUnits="userSpaceOnUse"
       y2="36.953"
       id="linearGradient5722">
      <stop
         offset="0"
         stop-color="#7dec40"
         id="stop7333-5" />
      <stop
         offset="1"
         stop-color="#44a410"
         id="stop7335-8" />
    </linearGradient>
    <linearGradient
       y2="153.5"
       x2="-493.36"
       gradientTransform="translate(526.36,-120)"
       y1="153.5"
       gradientUnits="userSpaceOnUse"
       x1="-494.36"
       id="linearGradient4881">
      <stop
         offset="0"
         id="stop4877" />
      <stop
         offset="1"
         stop-opacity="0"
         id="stop4879" />
    </linearGradient>
    <linearGradient
       y2="153.5"
       x2="-493.36"
       gradientTransform="matrix(-1,0,0,1,-462.36,-120)"
       y1="153.5"
       gradientUnits="userSpaceOnUse"
       x1="-494.36"
       id="linearGradient4913">
      <stop
         offset="0"
         stop-color="#f5f4f4"
         id="stop4909" />
      <stop
         offset="1"
         stop-opacity="0"
         stop-color="#f5f4f4"
         id="stop4911" />
    </linearGradient>
    <linearGradient
       x1="23.976999"
       y1="11.271"
       gradientTransform="matrix(0.69349419,0,0,0.69339759,15.195197,21.323041)"
       x2="23.976999"
       gradientUnits="userSpaceOnUse"
       y2="36.952999"
       id="linearGradient5722-3">
      <stop
         offset="0"
         stop-color="#7dec40"
         id="stop7333-5-5" />
      <stop
         offset="1"
         stop-color="#44a410"
         id="stop7335-8-6" />
    </linearGradient>
  </defs>
  <metadata
     id="metadata7">
    <rdf:RDF>
      <cc:Work
         rdf:about="">
        <dc:format>image/svg+xml</dc:format>
        <dc:type
           rdf:resource="http://purl.org/dc/dcmitype/StillImage" />
        <dc:title />
      </cc:Work>
    </rdf:RDF>
  </metadata>
  <g
     transform="translate(19.13985,5.9983)"
     id="g6148-6-7-6-3">
    <g
       id="g4244"
       transform="matrix(0.5,0,0,0.5,4.430075,-7.49915)">
      <path
         inkscape:connector-curvature="0"
         id="rect5610-0-8-1"
         style="color:#000000;isolation:auto;mix-blend-mode:normal;solid-color:#000000;fill:#28618c;fill-opacity:1;color-rendering:auto;image-rendering:auto;shape-rendering:auto"
         d="m -37.13985,7.0017 c -2.216,0 -4,1.784 -4,4 l 0,21 c 0,2.216 1.784,4 4,4 l 24,0 c 2.216,0 4,-1.784 4,-4 l 0,-21 c 0,-1 -1,-2 -2,-2 l -17,0 c -2,0 -3,-2 -5,-2 z"
         sodipodi:nodetypes="sssssssssss" />
      <path
         id="rect5605-5-9-5-9-3"
         style="color:#000000;isolation:auto;mix-blend-mode:normal;solid-color:#000000;fill:url(#linearGradient4797);fill-opacity:1;color-rendering:auto;image-rendering:auto;shape-rendering:auto"
         d="m -15.13985,11.0017 c -3,0 -4,2 -6,2 l -20,0 c -1.3617,0 -2,0.5585 -2,2 l 0,22 c 0,2.216 1.784,4 4,4 l 28,0 c 2.216,0 4.0014,-1.784 4,-4 l 0,-22 c 0,-1.7929 -2.0806932,-3.9978 -4.0039,-3.9978 l -4,0 z"
         inkscape:connector-curvature="0"
         sodipodi:nodetypes="csscsssccscc" />
      <rect
         x="-43.139832"
         y="31.001701"
         width="3.9999816"
         height="1.9999987"
         style="color:#000000;opacity:1;isolation:auto;mix-blend-mode:normal;solid-color:#000000;fill:#1287de;color-rendering:auto;image-rendering:auto;shape-rendering:auto"
         id="rect5679-96-6-3-9-1" />
      <path
         style="color:#000000;isolation:auto;mix-blend-mode:normal;solid-color:#000000;fill:#1287de;fill-opacity:1;color-rendering:auto;image-rendering:auto;shape-rendering:auto"
         d="m -43.13985,35.0017 0,2 c 0,2.216 1.784,4 4,4 l 28,0 c 2.216,0 4.0014,-1.784 4,-4 l 0,-2 c 0.0014,2.216 -1.784,4 -4,4 l -28,0 c -2.216,0 -4,-1.784 -4,-4 z"
         id="rect5605-5-9-5-9-3-6"
         inkscape:connector-curvature="0"
         sodipodi:nodetypes="csssccssc" />
      <path
         style="color:#000000;isolation:auto;mix-blend-mode:normal;solid-color:#000000;fill:#9cc4e0;fill-opacity:1;color-rendering:auto;image-rendering:auto;shape-rendering:auto"
         d="m -15.13985,11.0017 c -3,0 -4,2 -6,2 l -20,0 c -1.3617,0 -2,0.5585 -2,2 l 0,2 c 0,-1.4415 0.6383,-2 2,-2 l 20,0 c 2,0 3,-2 6,-2 l -0.0039,0.0039 4,0 c 2.20898,-0.2209 4.003906,2.203194 4.003906,3.996094 l 0,-2 c 0,-1.7929 -1.794926,-4.216994 -4.003906,-3.996094 l -4,0 z"
         id="rect5605-5-9-5-9-3-2"
         inkscape:connector-curvature="0"
         sodipodi:nodetypes="cssscssccccsccc" />
      <rect
         x="-11.139832"
         y="31.001701"
         width="3.9999816"
         height="1.9999987"
         style="color:#000000;opacity:1;isolation:auto;mix-blend-mode:normal;solid-color:#000000;fill:#1287de;color-rendering:auto;image-rendering:auto;shape-rendering:auto"
         id="rect5679-96-6-3-9-1-3" />
    </g>
  </g>
  <rect
     width="0"
     x="-44.555775"
     y="42.585312"
     height="14.668059"
     style="fill:#4d4d4d"
     id="rect4035" />
  <rect
     width="0"
     x="-37.595203"
     y="65.15593"
     height="14.668059"
     style="fill:#4d4d4d"
     id="rect4035-8" />
  <rect
     width="0"
     x="-35.78191"
     y="64.0952"
     height="14.668059"
     style="fill:#4d4d4d"
     id="rect4035-0" />
  <rect
     width="0"
     x="-61.712025"
     y="38.804062"
     height="14.668059"
     style="fill:#4d4d4d"
     id="rect4035-06" />
  <rect
     width="0"
     x="-54.751453"
     y="61.37468"
     height="14.668059"
     style="fill:#4d4d4d"
     id="rect4035-8-7" />
  <rect
     width="0"
     x="-52.93816"
     y="60.31395"
     height="14.668059"
     style="fill:#4d4d4d"
     id="rect4035-0-42" />
  <rect
     width="0"
     x="-61.712025"
     y="38.804062"
     height="14.668059"
     style="fill:#4d4d4d"
     id="rect4035-3" />
  <rect
     width="0"
     x="-54.751453"
     y="61.37468"
     height="14.668059"
     style="fill:#4d4d4d"
     id="rect4035-8-9" />
  <rect
     width="0"
     x="-52.93816"
     y="60.31395"
     height="14.668059"
     style="fill:#4d4d4d"
     id="rect4035-0-4" />
  <rect
     width="0"
     x="-61.712025"
     y="38.804062"
     height="14.668059"
     style="fill:#4d4d4d"
     id="rect4035-2" />
  <rect
     width="0"
     x="-54.751453"
     y="61.37468"
     height="14.668059"
     style="fill:#4d4d4d"
     id="rect4035-8-99" />
  <rect
     width="0"
     x="-52.93816"
     y="60.31395"
     height="14.668059"
     style="fill:#4d4d4d"
     id="rect4035-0-43" />
  <rect
     width="0"
     x="-61.712025"
     y="38.804062"
     height="14.668059"
     style="fill:#4d4d4d"
     id="rect4035-3-9" />
  <rect
     width="0"
     x="-54.751453"
     y="61.37468"
     height="14.668059"
     style="fill:#4d4d4d"
     id="rect4035-8-9-9" />
  <rect
     width="0"
     x="-52.93816"
     y="60.31395"
     height="14.668059"
     style="fill:#4d4d4d"
     id="rect4035-0-4-4" />
  <rect
     width="0"
     x="8.5580902"
     y="60.093491"
     height="10.999983"
     style="fill:#4d4d4d"
     id="rect4035-5" />
  <rect
     width="0"
     x="4.0060883"
     y="62.612595"
     height="10.999983"
     style="fill:#4d4d4d"
     id="rect4035-7" />
  <rect
     width="0"
     x="-0.50169373"
     y="50.194016"
     height="10.999983"
     style="fill:#4d4d4d"
     id="rect4035-9" />
  <rect
     width="0"
     x="0.34233093"
     y="62.431442"
     height="10.999983"
     style="fill:#4d4d4d"
     id="rect4035-96" />
  <rect
     width="0"
     x="-4.209671"
     y="64.950546"
     height="10.999983"
     style="fill:#4d4d4d"
     id="rect4035-7-0" />
  <rect
     width="0"
     x="-8.717453"
     y="52.531967"
     height="10.999983"
     style="fill:#4d4d4d"
     id="rect4035-9-6" />
  <rect
     width="0"
     x="8.5580902"
     y="60.093491"
     height="10.999983"
     style="fill:#4d4d4d"
     id="rect4035-1" />
  <rect
     width="0"
     x="4.0060883"
     y="62.612595"
     height="10.999983"
     style="fill:#4d4d4d"
     id="rect4035-7-2" />
  <rect
     width="0"
     x="-0.50169373"
     y="50.194016"
     height="10.999983"
     style="fill:#4d4d4d"
     id="rect4035-9-0" />
  <rect
     width="0"
     x="0.34233093"
     y="62.431442"
     height="10.999983"
     style="fill:#4d4d4d"
     id="rect4035-96-9" />
  <rect
     width="0"
     x="-4.209671"
     y="64.950546"
     height="10.999983"
     style="fill:#4d4d4d"
     id="rect4035-7-0-9" />
  <rect
     width="0"
     x="-8.717453"
     y="52.531967"
     height="10.999983"
     style="fill:#4d4d4d"
     id="rect4035-9-6-9" />
  <path
     inkscape:connector-curvature="0"
     style="fill:#0566af;stroke-linejoin:round"
     d="M 11,7 A 3.5,3.5 0 0 0 7.5,10.5 3.5,3.5 0 0 0 7.54004,11.000977 2.5,2.5 0 0 0 7.5,11 2.5,2.5 0 0 0 5,13.5 2.5,2.5 0 0 0 7.5,16 L 14,16 A 3,3 0 0 0 17,13 3,3 0 0 0 14.465821,10.039063 3.5,3.5 0 0 0 11,7 Z M 10.999,8 11,8 c 1.259668,0.0018 2.308693,0.922092 2.47461,2.170899 a 1.0001,1.0001 0 0 0 0.835937,0.856445 C 15.289593,11.18123 15.999116,12.009911 16,13.000977 15.99947,14.116916 15.116079,15 14,15 L 7.5,15 C 6.659728,15 6,14.340272 6,13.5 6,12.659728 6.659728,12 7.5,12 c 0.0023,6.6e-5 0.0045,-7.7e-5 0.0068,0 A 1.0001,1.0001 0 0 0 8.528284,10.84961 C 8.510484,10.733099 8.501174,10.615899 8.499964,10.498047 8.501064,9.106767 9.607571,8.000531 10.998988,8 Z"
     id="path4188" />
</svg>
